<svg width="64" height="65" viewBox="0 0 64 65" fill="none" xmlns="http://www.w3.org/2000/svg">
<g clip-path="url(#clip0_2_4)">
<path d="M19.0959 17.8768C18.9438 18.3148 18.7282 18.8336 18.5889 19.2588C18.4951 19.6584 18.2782 20.192 18.2491 20.5469C17.877 24.4204 20.9507 27.4345 23.1288 30.232C25.3069 33.0294 27.512 36.7201 27.7545 39.5405C25.8165 39.514 23.4165 39.9951 21.7256 40.1628C20.0372 40.3291 16.3666 41.8451 15.4965 43.9866C14.6251 46.1317 13.568 48.9425 15.2548 50.23C16.9441 51.516 19.5945 50.6941 21.4909 50.3377C23.3898 49.9799 25.9997 48.1397 28.3989 48.9201C30.7981 49.6948 33.3109 49.4889 35.6797 50.2751C35.6031 53.5708 39.9287 53.7438 42.5786 53.0293C45.226 52.3162 49.7859 49.9767 51.9671 48.1543C54.1471 46.3354 55.6321 43.0107 53.0208 41.8219C53.9792 40.4206 54.5555 38.4045 54.9821 36.8927C55.4112 35.3795 55.1295 33.6024 55.0366 32.4048C54.9411 31.2086 54.778 29.489 54.1011 28.2694C53.4229 27.0477 54.1439 26.6007 53.22 25.8357C52.2949 25.0686 52.2427 23.4503 51.686 23.9124C51.2499 22.5124 49.7975 22.1146 48.9113 21.4301C48.025 20.7455 46.5993 20.643 45.0948 20.6751C43.5902 20.7071 42.2084 21.731 41.0712 21.2268C39.9365 20.7212 38.7904 20.2361 37.2495 20.5143C35.7099 20.7945 34.3154 20.7958 32.3668 21.9517C30.4143 23.1069 30.0428 19.9668 28.9514 18.6865C27.8626 17.4047 28.1765 15.5894 26.8842 14.6137C25.5945 13.6422 24.0978 13.5965 22.5965 14.4476C21.0927 15.3002 19.7054 16.11 19.0959 17.8768ZM23.3316 15.3158C26.0115 14.0315 26.9555 17.9026 27.7591 19.415C27.8985 19.6725 27.9339 20.0165 28.0015 20.193C29.9601 23.8781 32.0188 27.8682 36.1848 29.5019C34.9687 27.7386 33.0005 25.9828 31.9363 23.8381C32.1567 23.7143 32.3797 23.5892 32.6001 23.4654C33.0557 22.9981 33.543 22.8572 34.095 22.6263C38.7956 20.1824 41.6482 23.4899 44.9791 25.2989C44.6732 24.2773 43.5033 23.3768 42.6896 22.5584C47.3256 20.4836 50.961 24.0682 52.2381 27.4476C53.5177 30.8256 54.3127 34.6505 53.0482 38.5115C52.8944 39.0661 52.699 39.5961 52.4556 40.1249C51.589 42.0162 50.6725 43.3573 48.7816 44.6274C46.8932 45.8962 44.1776 47.2682 42.1429 48.1085C40.1094 48.9509 38.2683 49.0647 36.2939 48.9599C34.3183 48.8529 32.977 48.1417 31.1333 47.9325C29.2895 47.7233 27.768 46.8678 25.7683 47.4656C23.7686 48.0633 21.551 49.1248 19.3498 49.5027C17.1524 49.8814 15.5499 49.06 16.0213 47.0266C16.4915 44.991 16.9998 43.6167 18.8084 42.3673C20.6159 41.1158 23.0824 41.1221 24.8567 40.9697C26.636 40.8144 29.3918 41.9165 29.3186 39.8192C29.248 37.7205 28.5261 35.9929 27.4694 34.2135C27.0347 33.4814 26.6 32.7493 26.1652 32.0172C24.6563 29.4761 21.6604 26.2744 20.3688 23.7467C19.0772 21.219 19.5735 17.5946 22.5031 15.7808C22.8175 15.5423 22.9569 15.4471 23.3316 15.3158ZM48.2715 46.4992C48.4553 46.365 48.732 46.0743 49.0209 45.8952C50.3299 45.0786 51.5038 44.2166 52.4321 43.0663C53.8258 44.6622 51.9278 46.8081 50.1036 48.1735C48.2768 49.5402 44.7933 51.0357 42.6848 51.6607C40.5763 52.2857 37.6208 52.5483 37.0825 50.4017C41.0217 50.453 44.7005 48.4501 48.2715 46.4992Z" stroke="#020202" stroke-opacity="0.94902" stroke-width="0.0763923"/>
<path d="M22.5031 15.7808C22.7654 15.6195 23.053 15.4496 23.3316 15.3158C22.9569 15.4471 22.8175 15.5423 22.5031 15.7808Z" stroke="#737373" stroke-width="0.0763923"/>
<path d="M26.1652 32.0172C26.6572 32.6636 27.1447 33.4845 27.4694 34.2135C28.5261 35.9929 29.248 37.7204 29.3186 39.8192C29.3918 41.9165 26.636 40.8144 24.8567 40.9697C23.0824 41.1221 20.6159 41.1158 18.8084 42.3673C16.9998 43.6167 16.4915 44.991 16.0213 47.0266C15.5499 49.06 17.1524 49.8814 19.3498 49.5027C21.551 49.1247 23.7686 48.0633 25.7683 47.4656C27.768 46.8678 29.2895 47.7233 31.1333 47.9325C32.977 48.1416 34.3183 48.8529 36.2939 48.9598C38.2683 49.0647 40.1094 48.9509 42.1429 48.1085C44.1776 47.2682 46.8932 45.8962 48.7816 44.6274C50.6725 43.3572 51.589 42.0162 52.4556 40.1248C52.6472 39.6054 52.8617 39.0224 53.0482 38.5114C54.3127 34.6504 53.5177 30.8256 52.2381 27.4476C50.961 24.0682 47.3256 20.4836 42.6896 22.5583C43.5033 23.3767 44.6732 24.2773 44.9791 25.2989C41.6482 23.4899 38.7956 20.1824 34.095 22.6263C33.6339 22.8682 32.9995 23.1425 32.6001 23.4654C32.3797 23.5892 32.1567 23.7143 31.9363 23.8381C33.0005 25.9828 34.9687 27.7386 36.1848 29.5019C32.0188 27.8682 29.9601 23.8781 28.0015 20.193C27.8621 19.9355 27.828 19.5935 27.7591 19.415C26.9555 17.9025 26.0115 14.0315 23.3316 15.3158C23.053 15.4496 22.7654 15.6195 22.5031 15.7808C19.5735 17.5946 19.0772 21.219 20.3688 23.7467C21.6604 26.2744 24.6562 29.4761 26.1652 32.0172ZM43.4113 34.9582C44.4868 34.7269 44.684 37.1129 45.0573 37.7073C45.4306 38.3018 46.0014 40.196 46.2556 40.863C46.5072 41.5314 47.2885 43.6149 46.0905 43.8219C44.8912 44.0268 45.0371 41.8262 44.6804 41.197C44.3211 40.5693 43.9047 38.6336 43.5491 38.0518C43.1947 37.4664 42.1916 35.2197 43.4113 34.9582ZM39.8172 39.7206C40.7888 39.5533 41.5693 42.1817 42.0225 42.689C42.4796 43.1969 43.6505 45.5329 42.3552 45.7352C41.0598 45.9376 40.9593 43.3846 40.3694 42.8862C39.7821 42.3865 38.3068 39.976 39.8172 39.7206ZM48.5338 35.0111C49.7429 34.5497 49.8985 37.605 49.882 38.3168C49.8654 39.0285 50.578 41.571 49.3803 42.0345C48.1839 42.4945 48.3642 39.5213 48.415 38.7932C48.4669 38.0673 47.4337 35.4284 48.5338 35.0111Z" stroke="#FBFBFB" stroke-width="0.0763923"/>
<path d="M18.2491 20.5469C18.2782 20.1921 18.4951 19.6584 18.5889 19.2588C18.6891 18.8302 18.8588 18.3879 18.9312 17.9693C18.4041 18.6347 18.2315 19.829 18.2491 20.5469Z" stroke="#303030" stroke-opacity="0.0901961" stroke-width="0.0763923"/>
<path d="M18.5889 19.2588C18.7282 18.8336 18.9438 18.3148 19.0958 17.8768C19.0958 17.8768 18.9807 17.9048 18.9312 17.9693C18.8588 18.3879 18.689 18.8302 18.5889 19.2588Z" stroke="#0C0C0C" stroke-opacity="0.509804" stroke-width="0.0763923"/>
<path d="M28.0015 20.193C27.9339 20.0165 27.8985 19.6725 27.7591 19.415C27.828 19.5936 27.8621 19.9355 28.0015 20.193Z" stroke="#747474" stroke-width="0.0763923"/>
<path d="M32.6001 23.4654C32.9996 23.1425 33.6339 22.8682 34.095 22.6263C33.543 22.8572 33.0557 22.9981 32.6001 23.4654Z" stroke="#8C8C8C" stroke-width="0.0763923"/>
<path d="M27.4694 34.2135C27.1447 33.4845 26.6572 32.6636 26.1653 32.0172C26.6 32.7493 27.0347 33.4814 27.4694 34.2135Z" stroke="#7C7C7C" stroke-width="0.0763923"/>
<path d="M43.4113 34.9582C42.1916 35.2197 43.1947 37.4665 43.5491 38.0518C43.9047 38.6336 44.3211 40.5693 44.6804 41.1971C45.0371 41.8262 44.8912 44.0268 46.0905 43.8219C47.2885 43.6149 46.5073 41.5314 46.2556 40.863C46.0014 40.196 45.4306 38.3018 45.0573 37.7074C44.6841 37.1129 44.4868 34.7269 43.4113 34.9582Z" stroke="#030303" stroke-width="0.0763923"/>
<path d="M39.8172 39.7206C38.3068 39.976 39.7821 42.3865 40.3694 42.8863C40.9592 43.3846 41.0598 45.9376 42.3552 45.7353C43.6505 45.5329 42.4796 43.197 42.0225 42.689C41.5692 42.1817 40.7888 39.5533 39.8172 39.7206Z" stroke="#020202" stroke-width="0.0763923"/>
<path d="M48.5338 35.0111C47.4337 35.4284 48.467 38.0673 48.415 38.7933C48.3643 39.5214 48.1839 42.4945 49.3803 42.0345C50.578 41.571 49.8655 39.0285 49.882 38.3168C49.8985 37.605 49.7429 34.5497 48.5338 35.0111Z" stroke="#030303" stroke-width="0.0763923"/>
<path d="M52.4556 40.1249C52.699 39.5961 52.8944 39.0661 53.0482 38.5115C52.8617 39.0224 52.6472 39.6055 52.4556 40.1249Z" stroke="#717171" stroke-width="0.0763923"/>
<path d="M49.0209 45.8952C48.8295 46.0393 48.5718 46.3165 48.2715 46.4992C44.7005 48.4501 41.0217 50.453 37.0825 50.4017C37.6208 52.5483 40.5763 52.2857 42.6848 51.6607C44.7933 51.0357 48.2768 49.5402 50.1036 48.1735C51.9278 46.8081 53.8258 44.6623 52.4322 43.0663C51.5038 44.2166 50.3299 45.0786 49.0209 45.8952Z" stroke="#F5F5F5" stroke-width="0.0763923"/>
<path d="M48.2715 46.4992C48.5718 46.3165 48.8295 46.0393 49.0209 45.8952C48.732 46.0743 48.4553 46.365 48.2715 46.4992Z" stroke="#797979" stroke-width="0.0763923"/>
<path d="M19.0959 17.8768C18.9438 18.3148 18.7282 18.8336 18.5889 19.2588C18.4951 19.6584 18.2782 20.1921 18.2491 20.5469C17.8771 24.4204 20.9507 27.4345 23.1288 30.232C25.3069 33.0295 27.5121 36.7201 27.7545 39.5405C25.8165 39.514 23.4165 39.9952 21.7256 40.1629C20.0372 40.3292 16.3666 41.8451 15.4965 43.9867C14.6251 46.1318 13.568 48.9426 15.2548 50.23C16.9442 51.5161 19.5945 50.6942 21.4909 50.3378C23.3899 49.9799 25.9997 48.1398 28.3989 48.9201C30.7981 49.6949 33.3109 49.489 35.6797 50.2752C35.6031 53.5709 39.9287 53.7439 42.5787 53.0294C45.2261 52.3163 49.786 49.9768 51.9672 48.1543C54.1471 46.3354 55.6322 43.0108 53.0208 41.8219C53.9792 40.4207 54.5556 38.4045 54.9821 36.8928C55.4112 35.3796 55.1295 33.6024 55.0366 32.4048C54.9411 31.2087 54.778 29.4891 54.1011 28.2695C53.4229 27.0478 54.1439 26.6008 53.22 25.8357C52.2949 25.0686 52.2427 23.4504 51.686 23.9124C51.2499 22.5125 49.7975 22.1147 48.9113 21.4301C48.025 20.7455 46.5994 20.643 45.0948 20.6751C43.5902 20.7072 42.2084 21.7311 41.0712 21.2269C39.9365 20.7212 38.7904 20.2362 37.2495 20.5143C35.7099 20.7945 34.3154 20.7958 32.3668 21.9517C30.4143 23.1069 30.0428 19.9668 28.9514 18.6865C27.8626 17.4047 28.1765 15.5895 26.8842 14.6137C25.5945 13.6422 24.0978 13.5965 22.5965 14.4476C21.0927 15.3002 19.7054 16.11 19.0959 17.8768ZM23.3316 15.3158C26.0115 14.0315 26.9555 17.9026 27.7591 19.415C27.8985 19.6725 27.9339 20.0165 28.0015 20.193C29.9601 23.8781 32.0188 27.8683 36.1848 29.5019C34.9688 27.7386 33.0005 25.9828 31.9363 23.8381C32.1567 23.7143 32.3797 23.5892 32.6001 23.4655C33.0557 22.9981 33.543 22.8572 34.095 22.6263C38.7956 20.1824 41.6482 23.4899 44.9792 25.2989C44.6732 24.2773 43.5033 23.3768 42.6896 22.5584C47.3256 20.4836 50.961 24.0683 52.2381 27.4477C53.5177 30.8256 54.3128 34.6505 53.0482 38.5115C52.8945 39.0661 52.6991 39.5961 52.4557 40.1249C51.589 42.0163 50.6726 43.3573 48.7816 44.6275C46.8932 45.8963 44.1777 47.2682 42.1429 48.1085C40.1095 48.9509 38.2683 49.0647 36.2939 48.9599C34.3183 48.853 32.9771 48.1417 31.1333 47.9326C29.2895 47.7234 27.768 46.8679 25.7683 47.4656C23.7686 48.0634 21.551 49.1248 19.3498 49.5028C17.1525 49.8814 15.5499 49.0601 16.0214 47.0266C16.4916 44.991 16.9998 43.6168 18.8085 42.3674C20.6159 41.1159 23.0824 41.1221 24.8567 40.9697C26.636 40.8144 29.3918 41.9166 29.3186 39.8192C29.248 37.7205 28.5261 35.9929 27.4695 34.2135C27.0347 33.4814 26.6 32.7493 26.1653 32.0173C24.6563 29.4762 21.6604 26.2745 20.3688 23.7467C19.0772 21.219 19.5735 17.5946 22.5031 15.7808C22.8175 15.5423 22.9569 15.4471 23.3316 15.3158ZM48.2716 46.4993C48.4554 46.3651 48.7321 46.0743 49.021 45.8952C50.3299 45.0787 51.5038 44.2166 52.4322 43.0664C53.8258 44.6623 51.9279 46.8082 50.1036 48.1735C48.2768 49.5403 44.7934 51.0358 42.6848 51.6608C40.5763 52.2858 37.6208 52.5483 37.0826 50.4017C41.0218 50.4531 44.7005 48.4502 48.2716 46.4993Z" fill="#020202" fill-opacity="0.94902"/>
<path d="M22.5031 15.7808C22.7654 15.6195 23.053 15.4496 23.3317 15.3158C22.957 15.4471 22.8175 15.5423 22.5031 15.7808Z" fill="#737373"/>
<path d="M26.1653 32.0173C26.6572 32.6637 27.1447 33.4846 27.4695 34.2135C28.5261 35.9929 29.248 37.7205 29.3186 39.8192C29.3918 41.9166 26.636 40.8144 24.8567 40.9697C23.0824 41.1222 20.6159 41.1159 18.8085 42.3674C16.9998 43.6168 16.4916 44.991 16.0213 47.0266C15.5499 49.0601 17.1524 49.8814 19.3498 49.5028C21.551 49.1248 23.7686 48.0634 25.7683 47.4656C27.768 46.8679 29.2895 47.7234 31.1333 47.9326C32.977 48.1417 34.3183 48.853 36.2939 48.9599C38.2683 49.0648 40.1094 48.951 42.1429 48.1085C44.1776 47.2683 46.8932 45.8963 48.7816 44.6275C50.6725 43.3573 51.589 42.0163 52.4556 40.1249C52.6472 39.6055 52.8617 39.0224 53.0482 38.5115C54.3127 34.6505 53.5177 30.8256 52.2381 27.4477C50.961 24.0683 47.3256 20.4836 42.6896 22.5584C43.5033 23.3768 44.6732 24.2774 44.9791 25.2989C41.6482 23.4899 38.7956 20.1824 34.095 22.6264C33.6339 22.8682 32.9995 23.1425 32.6001 23.4655C32.3797 23.5892 32.1567 23.7144 31.9363 23.8381C33.0005 25.9829 34.9688 27.7386 36.1848 29.5019C32.0188 27.8683 29.9601 23.8782 28.0015 20.193C27.8621 19.9355 27.828 19.5936 27.7591 19.415C26.9555 17.9026 26.0115 14.0316 23.3316 15.3158C23.053 15.4496 22.7654 15.6195 22.5031 15.7809C19.5735 17.5946 19.0772 21.219 20.3688 23.7467C21.6604 26.2745 24.6563 29.4762 26.1653 32.0173ZM43.4113 34.9583C44.4868 34.727 44.6841 37.1129 45.0574 37.7074C45.4306 38.3019 46.0014 40.1961 46.2556 40.863C46.5073 41.5314 47.2885 43.615 46.0905 43.822C44.8912 44.0269 45.0371 41.8263 44.6804 41.1971C44.3211 40.5694 43.9048 38.6337 43.5491 38.0519C43.1948 37.4665 42.1916 35.2198 43.4113 34.9583ZM39.8173 39.7207C40.7888 39.5533 41.5693 42.1818 42.0225 42.6891C42.4796 43.197 43.6505 45.533 42.3552 45.7353C41.0599 45.9377 40.9593 43.3846 40.3694 42.8863C39.7822 42.3866 38.3068 39.9761 39.8173 39.7207ZM48.5338 35.0112C49.7429 34.5498 49.8985 37.6051 49.882 38.3169C49.8655 39.0286 50.578 41.571 49.3803 42.0346C48.1839 42.4946 48.3643 39.5214 48.415 38.7933C48.467 38.0673 47.4337 35.4285 48.5338 35.0112Z" fill="#FBFBFB"/>
<path d="M18.2491 20.5469C18.2782 20.1921 18.4951 19.6584 18.5889 19.2588C18.6891 18.8302 18.8588 18.3879 18.9312 17.9693C18.4041 18.6347 18.2315 19.829 18.2491 20.5469Z" fill="#303030" fill-opacity="0.0901961"/>
<path d="M18.5889 19.2588C18.7282 18.8336 18.9438 18.3148 19.0958 17.8768C19.0958 17.8768 18.9807 17.9048 18.9312 17.9693C18.8588 18.3879 18.689 18.8302 18.5889 19.2588Z" fill="#0C0C0C" fill-opacity="0.509804"/>
<path d="M28.0015 20.193C27.9339 20.0165 27.8985 19.6725 27.7591 19.415C27.828 19.5936 27.8621 19.9355 28.0015 20.193Z" fill="#747474"/>
<path d="M32.6001 23.4655C32.9996 23.1425 33.6339 22.8682 34.095 22.6263C33.543 22.8572 33.0557 22.9982 32.6001 23.4655Z" fill="#8C8C8C"/>
<path d="M27.4695 34.2135C27.1447 33.4846 26.6572 32.6636 26.1653 32.0173C26.6 32.7494 27.0347 33.4814 27.4695 34.2135Z" fill="#7C7C7C"/>
<path d="M43.4113 34.9583C42.1917 35.2197 43.1948 37.4665 43.5491 38.0518C43.9048 38.6337 44.3212 40.5694 44.6804 41.1971C45.0372 41.8263 44.8913 44.0268 46.0905 43.822C47.2885 43.615 46.5073 41.5314 46.2556 40.863C46.0015 40.196 45.4307 38.3019 45.0574 37.7074C44.6841 37.1129 44.4868 34.727 43.4113 34.9583Z" fill="#030303"/>
<path d="M39.8173 39.7207C38.3068 39.9761 39.7822 42.3866 40.3695 42.8863C40.9593 43.3846 41.0599 45.9377 42.3552 45.7353C43.6505 45.533 42.4796 43.197 42.0225 42.6891C41.5693 42.1818 40.7888 39.5533 39.8173 39.7207Z" fill="#020202"/>
<path d="M48.5339 35.0112C47.4337 35.4284 48.467 38.0673 48.415 38.7933C48.3643 39.5214 48.1839 42.4946 49.3803 42.0346C50.578 41.571 49.8655 39.0286 49.882 38.3168C49.8985 37.6051 49.7429 34.5498 48.5339 35.0112Z" fill="#030303"/>
<path d="M52.4557 40.1249C52.6991 39.5962 52.8944 39.0661 53.0482 38.5115C52.8617 39.0224 52.6472 39.6055 52.4557 40.1249Z" fill="#717171"/>
<path d="M49.021 45.8953C48.8295 46.0394 48.5719 46.3166 48.2716 46.4993C44.7005 48.4502 41.0218 50.4531 37.0826 50.4017C37.6208 52.5483 40.5763 52.2858 42.6848 51.6608C44.7934 51.0358 48.2768 49.5403 50.1036 48.1735C51.9279 46.8082 53.8258 44.6623 52.4322 43.0664C51.5038 44.2166 50.3299 45.0787 49.021 45.8953Z" fill="#F5F5F5"/>
<path d="M48.2716 46.4993C48.5719 46.3166 48.8295 46.0394 49.021 45.8953C48.7321 46.0744 48.4554 46.3651 48.2716 46.4993Z" fill="#797979"/>
</g>
<line y1="-1" x2="10.7717" y2="-1" transform="matrix(0.988146 -0.153517 0.16218 0.986761 4.95837 21.0982)" stroke="black" stroke-width="2"/>
<line y1="-1" x2="11.1862" y2="-1" transform="matrix(0.789465 0.613795 -0.635238 0.772317 8.40768 6.86874)" stroke="black" stroke-width="2"/>
<line y1="-1" x2="10.3514" y2="-1" transform="matrix(0.124958 0.992162 -0.992988 0.118215 21.2348 1)" stroke="black" stroke-width="2"/>
<line y1="-1" x2="10.5696" y2="-1" transform="matrix(-0.555611 0.831443 -0.845455 -0.534046 35.515 2.46719)" stroke="black" stroke-width="2"/>
<defs>
<clipPath id="clip0_2_4">
<rect width="47.6053" height="44.0421" fill="white" transform="matrix(0.872013 -0.489483 0.510592 0.859823 0 27.1316)"/>
</clipPath>
</defs>
</svg>
