<?xml version="1.0" encoding="UTF-8"?>
<svg xmlns="http://www.w3.org/2000/svg" xmlns:xlink="http://www.w3.org/1999/xlink" width="64px" height="78px" viewBox="0 0 64 77" version="1.1">
<g id="surface1">
<path style="fill:none;stroke-width:0.3;stroke-linecap:butt;stroke-linejoin:miter;stroke:rgb(0.784314%,0.784314%,0.784314%);stroke-opacity:0.94902;stroke-miterlimit:4;" d="M 110.992432 21.00487 C 109.130859 22.93263 106.765747 25.107143 104.995728 27.004058 C 103.500366 28.900974 101.089478 31.152597 100.006104 33.003247 C 87.936401 53.036526 93.734741 78.945617 96.069336 100.922078 C 98.403931 122.898539 98.464966 149.840909 91.995239 166.003247 C 83.312988 159.911526 71.182251 155.176948 63.095093 150.905032 C 55.023193 146.633117 34.378052 143.656656 24.703979 152.693994 C 15.014648 161.746753 2.700806 173.868506 6.866455 186.082792 C 11.047363 198.297078 25.222778 201.936688 34.744263 205.80763 C 44.281006 209.678571 61.004639 207.627435 69.747925 219.255682 C 78.50647 230.853084 90.408325 237.438312 98.999023 249.00487 C 89.813232 266.786526 108.886719 281.005682 122.772217 285.231331 C 136.642456 289.456981 163.513184 290.659903 178.253174 287.390422 C 192.977905 284.136364 208.602905 270.518669 199.996948 256.006494 C 208.084106 251.287338 216.094971 242.034091 222.076416 235.078734 C 228.07312 228.123377 231.567383 217.543831 234.359741 210.711851 C 237.136841 203.87987 241.012573 193.978896 241.226196 185.234578 C 241.439819 176.474838 245.895386 176.243506 243.774414 169.226461 C 241.653442 162.193994 245.758057 153.1875 242.004395 154.00487 C 243.789673 145.013799 238.296509 138.382305 236.129761 131.920455 C 233.963013 125.458604 227.798462 120.523539 220.916748 116.081981 C 214.035034 111.640422 205.047607 112.997565 201.263428 106.751623 C 197.494507 100.505682 193.618774 94.336851 185.913086 91.129058 C 178.207397 87.936688 171.905518 83.664773 160.003662 84.004058 C 148.086548 84.327922 154.830933 66.021916 153.335571 55.673701 C 151.855469 45.325487 158.14209 36.36526 154.922485 27.065747 C 151.702881 17.797078 145.065308 12.954545 136.001587 13.000812 C 126.922607 13.047078 118.484497 13.216721 110.992432 21.00487 M 136.993408 20.002435 C 152.542114 21.205357 146.42334 45.263799 145.996094 55.997565 C 145.935059 57.832792 145.172119 59.82224 145.004272 60.994318 C 143.966675 87.150162 142.562866 115.280032 156.997681 136.994318 C 156.234741 123.623377 152.053833 107.98539 152.999878 92.99513 C 154.327393 92.99513 155.670166 92.99513 156.997681 92.99513 C 160.308838 91.838474 162.887573 92.563312 166.000366 92.99513 C 193.786621 94.059253 197.799683 120.893669 207.992554 141.004058 C 209.350586 134.480519 206.481934 125.967532 205.001831 118.996753 C 231.506348 121.880682 238.311768 152.632305 235.015869 175.025162 C 231.735229 197.418019 225.067139 220.767045 208.999634 237.993506 C 206.817627 240.553571 204.51355 242.851461 201.99585 244.99513 C 193.008423 252.675325 185.272217 257.193994 173.324585 258.335227 C 161.392212 259.476461 145.446777 258.643669 134.002686 256.993506 C 122.558594 255.358766 113.937378 250.331169 105.300903 243.699675 C 96.664429 237.05276 92.514038 229.048701 84.747314 222.247565 C 76.980591 215.446429 72.402954 206.100649 61.767578 203.232143 C 51.132202 200.363636 38.269043 199.361201 27.313232 194.67289 C 16.372681 190 11.33728 180.592532 18.920898 170.92289 C 26.504517 161.237825 32.485962 155.284903 44.006348 154.00487 C 55.526733 152.709416 66.650391 160.3125 75.073242 164.923701 C 83.526611 169.534903 93.017578 184.016234 98.312378 172.326299 C 103.622437 160.636364 104.995728 148.977273 104.995728 136.007305 C 104.995728 130.671266 104.995728 125.335227 104.995728 119.999188 C 104.995728 101.477273 100.05188 74.781656 100.997925 57 C 101.94397 39.218344 113.90686 20.92776 132.003784 20.002435 C 134.063721 19.663149 134.94873 19.570617 136.993408 20.002435 M 166.000366 267.002435 C 167.190552 266.832792 169.219971 266.092532 171.005249 266 C 179.107666 265.55276 186.721802 264.44237 194.000244 261.003247 C 196.014404 274.004058 181.686401 279.910714 169.784546 281.776786 C 157.867432 283.642857 138.122559 281.129058 126.922607 278.075487 C 115.722656 275.021916 101.669312 267.387987 104.995728 254.001623 C 122.650146 266.37013 144.638062 266.709416 166.000366 267.002435 Z M 166.000366 267.002435 " transform="matrix(0.256,0,0,0.253289,0,0)"/>
<path style="fill:none;stroke-width:0.3;stroke-linecap:butt;stroke-linejoin:miter;stroke:rgb(45.09804%,45.09804%,45.09804%);stroke-opacity:1;stroke-miterlimit:4;" d="M 132.003784 20.002435 C 133.621216 19.925325 135.375977 19.879058 136.993408 20.002435 C 134.94873 19.570617 134.063721 19.663149 132.003784 20.002435 Z M 132.003784 20.002435 " transform="matrix(0.256,0,0,0.253289,0,0)"/>
<path style="fill:none;stroke-width:0.3;stroke-linecap:butt;stroke-linejoin:miter;stroke:rgb(98.431373%,98.431373%,98.431373%);stroke-opacity:1;stroke-miterlimit:4;" d="M 104.995728 119.999188 C 105.484009 125.042208 105.484009 131.025974 104.995728 136.007305 C 104.995728 148.977273 103.622437 160.636364 98.312378 172.326299 C 93.017578 184.016234 83.526611 169.534903 75.073242 164.923701 C 66.650391 160.3125 55.526733 152.709416 44.006348 154.00487 C 32.485962 155.284903 26.504517 161.237825 18.920898 170.92289 C 11.33728 180.592532 16.372681 190 27.313232 194.67289 C 38.269043 199.361201 51.132202 200.363636 61.767578 203.232143 C 72.402954 206.100649 76.980591 215.446429 84.747314 222.247565 C 92.514038 229.048701 96.664429 237.05276 105.300903 243.699675 C 113.937378 250.331169 122.558594 255.358766 134.002686 256.993506 C 145.446777 258.643669 161.392212 259.476461 173.324585 258.335227 C 185.272217 257.193994 193.008423 252.675325 201.99585 244.99513 C 204.25415 242.743506 206.787109 240.214286 208.999634 237.993506 C 225.067139 220.767045 231.735229 197.418019 235.015869 175.025162 C 238.311768 152.632305 231.506348 121.880682 205.001831 118.996753 C 206.481934 125.967532 209.350586 134.480519 207.992554 141.004058 C 197.799683 120.893669 193.786621 94.059253 166.000366 92.99513 C 163.269043 92.902597 159.667969 92.455357 156.997681 92.99513 C 155.670166 92.99513 154.327393 92.99513 152.999878 92.99513 C 152.053833 107.98539 156.234741 123.623377 156.997681 136.994318 C 142.562866 115.280032 143.966675 87.150162 145.004272 60.994318 C 145.065308 59.159091 145.828247 57.185065 145.996094 55.997565 C 146.42334 45.263799 152.542114 21.205357 136.993408 20.002435 C 135.375977 19.879058 133.621216 19.925325 132.003784 20.002435 C 113.90686 20.92776 101.94397 39.218344 100.997925 57 C 100.05188 74.781656 104.995728 101.477273 104.995728 119.999188 M 175.003052 188.997565 C 180.480957 191.033279 174.972534 204.681818 175.064087 209.07711 C 175.15564 213.472403 172.653198 225.578734 172.012329 230.00487 C 171.356201 234.431006 169.296265 248.218344 163.330078 245.673701 C 157.363892 243.113636 163.925171 231.531656 164.001465 226.997565 C 164.0625 222.463474 167.373657 210.603896 167.327881 206.331981 C 167.297363 202.044643 168.792725 186.684253 175.003052 188.997565 M 145.996094 204.003247 C 150.83313 206.069805 147.30835 222.833604 147.994995 226.997565 C 148.696899 231.176948 147.720337 247.539773 141.326904 244.671266 C 134.933472 241.80276 141.326904 227.537338 139.99939 223.003247 C 138.687134 218.469156 138.48877 200.76461 145.996094 204.003247 M 197.998047 205.005682 C 204.696655 206.193182 197.20459 223.373377 195.220947 227.213474 C 193.237305 231.053571 189.63623 247.138799 182.983398 245.997565 C 176.345825 244.840909 185.134888 229.141234 187.316895 225.316558 C 189.498901 221.507305 191.90979 203.910714 197.998047 205.005682 Z M 197.998047 205.005682 " transform="matrix(0.256,0,0,0.253289,0,0)"/>
<path style="fill:none;stroke-width:0.3;stroke-linecap:butt;stroke-linejoin:miter;stroke:rgb(18.82353%,18.82353%,18.82353%);stroke-opacity:0.0901961;stroke-miterlimit:4;" d="M 100.006104 33.003247 C 101.089478 31.152597 103.500366 28.900974 104.995728 27.004058 C 106.5979 24.968344 108.551025 23.071429 110.00061 21.00487 C 105.834961 23.025162 101.852417 29.024351 100.006104 33.003247 Z M 100.006104 33.003247 " transform="matrix(0.256,0,0,0.253289,0,0)"/>
<path style="fill:none;stroke-width:0.3;stroke-linecap:butt;stroke-linejoin:miter;stroke:rgb(4.705882%,4.705882%,4.705882%);stroke-opacity:0.509804;stroke-miterlimit:4;" d="M 104.995728 27.004058 C 106.765747 25.107143 109.130859 22.93263 110.992432 21.00487 C 110.992432 21.00487 110.397339 20.804383 110.00061 21.00487 C 108.551025 23.071429 106.5979 24.968344 104.995728 27.004058 Z M 104.995728 27.004058 " transform="matrix(0.256,0,0,0.253289,0,0)"/>
<path style="fill:none;stroke-width:0.3;stroke-linecap:butt;stroke-linejoin:miter;stroke:rgb(45.490196%,45.490196%,45.490196%);stroke-opacity:1;stroke-miterlimit:4;" d="M 145.004272 60.994318 C 145.172119 59.82224 145.935059 57.832792 145.996094 55.997565 C 145.828247 57.185065 145.065308 59.159091 145.004272 60.994318 Z M 145.004272 60.994318 " transform="matrix(0.256,0,0,0.253289,0,0)"/>
<path style="fill:none;stroke-width:0.3;stroke-linecap:butt;stroke-linejoin:miter;stroke:rgb(54.901963%,54.901963%,54.901963%);stroke-opacity:1;stroke-miterlimit:4;" d="M 156.997681 92.99513 C 159.667969 92.455357 163.269043 92.902597 166.000366 92.99513 C 162.887573 92.563312 160.308838 91.838474 156.997681 92.99513 Z M 156.997681 92.99513 " transform="matrix(0.256,0,0,0.253289,0,0)"/>
<path style="fill:none;stroke-width:0.3;stroke-linecap:butt;stroke-linejoin:miter;stroke:rgb(48.627451%,48.627451%,48.627451%);stroke-opacity:1;stroke-miterlimit:4;" d="M 104.995728 136.007305 C 105.484009 131.025974 105.484009 125.042208 104.995728 119.999188 C 104.995728 125.335227 104.995728 130.671266 104.995728 136.007305 Z M 104.995728 136.007305 " transform="matrix(0.256,0,0,0.253289,0,0)"/>
<path style="fill:none;stroke-width:0.3;stroke-linecap:butt;stroke-linejoin:miter;stroke:rgb(1.176471%,1.176471%,1.176471%);stroke-opacity:1;stroke-miterlimit:4;" d="M 175.003052 188.997565 C 168.792725 186.684253 167.297363 202.044643 167.327881 206.331981 C 167.373657 210.603896 164.0625 222.463474 164.001465 226.997565 C 163.925171 231.531656 157.363892 243.113636 163.330078 245.673701 C 169.296265 248.218344 171.356201 234.431006 172.012329 230.00487 C 172.653198 225.578734 175.15564 213.472403 175.064087 209.07711 C 174.972534 204.681818 180.480957 191.033279 175.003052 188.997565 Z M 175.003052 188.997565 " transform="matrix(0.256,0,0,0.253289,0,0)"/>
<path style="fill:none;stroke-width:0.3;stroke-linecap:butt;stroke-linejoin:miter;stroke:rgb(0.784314%,0.784314%,0.784314%);stroke-opacity:1;stroke-miterlimit:4;" d="M 145.996094 204.003247 C 138.48877 200.76461 138.687134 218.469156 139.99939 223.003247 C 141.326904 227.537338 134.933472 241.80276 141.326904 244.671266 C 147.720337 247.539773 148.696899 231.176948 147.994995 226.997565 C 147.30835 222.833604 150.83313 206.069805 145.996094 204.003247 Z M 145.996094 204.003247 " transform="matrix(0.256,0,0,0.253289,0,0)"/>
<path style="fill:none;stroke-width:0.3;stroke-linecap:butt;stroke-linejoin:miter;stroke:rgb(1.176471%,1.176471%,1.176471%);stroke-opacity:1;stroke-miterlimit:4;" d="M 197.998047 205.005682 C 191.90979 203.910714 189.498901 221.507305 187.316895 225.316558 C 185.134888 229.141234 176.345825 244.840909 182.983398 245.997565 C 189.63623 247.138799 193.237305 231.053571 195.220947 227.213474 C 197.20459 223.373377 204.696655 206.193182 197.998047 205.005682 Z M 197.998047 205.005682 " transform="matrix(0.256,0,0,0.253289,0,0)"/>
<path style="fill:none;stroke-width:0.3;stroke-linecap:butt;stroke-linejoin:miter;stroke:rgb(44.313726%,44.313726%,44.313726%);stroke-opacity:1;stroke-miterlimit:4;" d="M 201.99585 244.99513 C 204.51355 242.851461 206.817627 240.553571 208.999634 237.993506 C 206.787109 240.214286 204.25415 242.743506 201.99585 244.99513 Z M 201.99585 244.99513 " transform="matrix(0.256,0,0,0.253289,0,0)"/>
<path style="fill:none;stroke-width:0.3;stroke-linecap:butt;stroke-linejoin:miter;stroke:rgb(96.078432%,96.078432%,96.078432%);stroke-opacity:1;stroke-miterlimit:4;" d="M 171.005249 266 C 169.754028 266.200487 167.84668 266.925325 166.000366 267.002435 C 144.638062 266.709416 122.650146 266.37013 104.995728 254.001623 C 101.669312 267.387987 115.722656 275.021916 126.922607 278.075487 C 138.122559 281.129058 157.867432 283.642857 169.784546 281.776786 C 181.686401 279.910714 196.014404 274.004058 194.000244 261.003247 C 186.721802 264.44237 179.107666 265.55276 171.005249 266 Z M 171.005249 266 " transform="matrix(0.256,0,0,0.253289,0,0)"/>
<path style="fill:none;stroke-width:0.3;stroke-linecap:butt;stroke-linejoin:miter;stroke:rgb(47.450981%,47.450981%,47.450981%);stroke-opacity:1;stroke-miterlimit:4;" d="M 166.000366 267.002435 C 167.84668 266.925325 169.754028 266.200487 171.005249 266 C 169.219971 266.092532 167.190552 266.832792 166.000366 267.002435 Z M 166.000366 267.002435 " transform="matrix(0.256,0,0,0.253289,0,0)"/>
<path style=" stroke:none;fill-rule:nonzero;fill:rgb(0.784314%,0.784314%,0.784314%);fill-opacity:0.94902;" d="M 28.414062 5.320312 C 27.9375 5.808594 27.332031 6.359375 26.878906 6.839844 C 26.496094 7.320312 25.878906 7.890625 25.601562 8.359375 C 22.511719 13.433594 23.996094 19.996094 24.59375 25.5625 C 25.191406 31.128906 25.207031 37.953125 23.550781 42.046875 C 21.328125 40.503906 18.222656 39.304688 16.152344 38.222656 C 14.085938 37.140625 8.800781 36.386719 6.324219 38.675781 C 3.84375 40.96875 0.691406 44.039062 1.757812 47.132812 C 2.828125 50.226562 6.457031 51.148438 8.894531 52.128906 C 11.335938 53.109375 15.617188 52.589844 17.855469 55.535156 C 20.097656 58.472656 23.144531 60.140625 25.34375 63.070312 C 22.992188 67.574219 27.875 71.175781 31.429688 72.246094 C 34.980469 73.316406 41.859375 73.621094 45.632812 72.792969 C 49.402344 71.96875 53.402344 68.519531 51.199219 64.84375 C 53.269531 63.648438 55.320312 61.304688 56.851562 59.542969 C 58.386719 57.78125 59.28125 55.101562 59.996094 53.371094 C 60.707031 51.640625 61.699219 49.132812 61.753906 46.917969 C 61.808594 44.699219 62.949219 44.640625 62.40625 42.863281 C 61.863281 41.082031 62.914062 38.800781 61.953125 39.007812 C 62.410156 36.730469 61.003906 35.050781 60.449219 33.414062 C 59.894531 31.777344 58.316406 30.527344 56.554688 29.402344 C 54.792969 28.277344 52.492188 28.621094 51.523438 27.039062 C 50.558594 25.457031 49.566406 23.894531 47.59375 23.082031 C 45.621094 22.273438 44.007812 21.191406 40.960938 21.277344 C 37.910156 21.359375 39.636719 16.722656 39.253906 14.101562 C 38.875 11.480469 40.484375 9.210938 39.660156 6.855469 C 38.835938 4.507812 37.136719 3.28125 34.816406 3.292969 C 32.492188 3.304688 30.332031 3.347656 28.414062 5.320312 M 35.070312 5.066406 C 39.050781 5.371094 37.484375 11.464844 37.375 14.183594 C 37.359375 14.648438 37.164062 15.152344 37.121094 15.449219 C 36.855469 22.074219 36.496094 29.199219 40.191406 34.699219 C 39.996094 31.3125 38.925781 27.351562 39.167969 23.554688 C 39.507812 23.554688 39.851562 23.554688 40.191406 23.554688 C 41.039062 23.261719 41.699219 23.445312 42.496094 23.554688 C 49.609375 23.824219 50.636719 30.621094 53.246094 35.714844 C 53.59375 34.0625 52.859375 31.90625 52.480469 30.140625 C 59.265625 30.871094 61.007812 38.660156 60.164062 44.332031 C 59.324219 50.003906 57.617188 55.917969 53.503906 60.28125 C 52.945312 60.929688 52.355469 61.511719 51.710938 62.054688 C 49.410156 64 47.429688 65.144531 44.371094 65.433594 C 41.316406 65.722656 37.234375 65.511719 34.304688 65.09375 C 31.375 64.679688 29.167969 63.40625 26.957031 61.726562 C 24.746094 60.042969 23.683594 58.015625 21.695312 56.292969 C 19.707031 54.570312 18.535156 52.203125 15.8125 51.476562 C 13.089844 50.75 9.796875 50.496094 6.992188 49.308594 C 4.191406 48.125 2.902344 45.742188 4.84375 43.292969 C 6.785156 40.839844 8.316406 39.332031 11.265625 39.007812 C 14.214844 38.679688 17.0625 40.605469 19.21875 41.773438 C 21.382812 42.941406 23.8125 46.609375 25.167969 43.648438 C 26.527344 40.6875 26.878906 37.734375 26.878906 34.449219 C 26.878906 33.097656 26.878906 31.746094 26.878906 30.394531 C 26.878906 25.703125 25.613281 18.941406 25.855469 14.4375 C 26.097656 9.933594 29.160156 5.300781 33.792969 5.066406 C 34.320312 4.980469 34.546875 4.957031 35.070312 5.066406 M 42.496094 67.628906 C 42.800781 67.585938 43.320312 67.398438 43.777344 67.375 C 45.851562 67.261719 47.800781 66.980469 49.664062 66.109375 C 50.179688 69.402344 46.511719 70.898438 43.464844 71.371094 C 40.414062 71.84375 35.359375 71.207031 32.492188 70.433594 C 29.625 69.660156 26.027344 67.726562 26.878906 64.335938 C 31.398438 67.46875 37.027344 67.554688 42.496094 67.628906 Z M 42.496094 67.628906 "/>
<path style=" stroke:none;fill-rule:nonzero;fill:rgb(45.09804%,45.09804%,45.09804%);fill-opacity:1;" d="M 33.792969 5.066406 C 34.207031 5.046875 34.65625 5.035156 35.070312 5.066406 C 34.546875 4.957031 34.320312 4.980469 33.792969 5.066406 Z M 33.792969 5.066406 "/>
<path style=" stroke:none;fill-rule:nonzero;fill:rgb(98.431373%,98.431373%,98.431373%);fill-opacity:1;" d="M 26.878906 30.394531 C 27.003906 31.671875 27.003906 33.1875 26.878906 34.449219 C 26.878906 37.734375 26.527344 40.6875 25.167969 43.648438 C 23.8125 46.609375 21.382812 42.941406 19.21875 41.773438 C 17.0625 40.605469 14.214844 38.679688 11.265625 39.007812 C 8.316406 39.332031 6.785156 40.839844 4.84375 43.292969 C 2.902344 45.742188 4.191406 48.125 6.992188 49.308594 C 9.796875 50.496094 13.089844 50.75 15.8125 51.476562 C 18.535156 52.203125 19.707031 54.570312 21.695312 56.292969 C 23.683594 58.015625 24.746094 60.042969 26.957031 61.726562 C 29.167969 63.40625 31.375 64.679688 34.304688 65.09375 C 37.234375 65.511719 41.316406 65.722656 44.371094 65.433594 C 47.429688 65.144531 49.410156 64 51.710938 62.054688 C 52.289062 61.484375 52.9375 60.84375 53.503906 60.28125 C 57.617188 55.917969 59.324219 50.003906 60.164062 44.332031 C 61.007812 38.660156 59.265625 30.871094 52.480469 30.140625 C 52.859375 31.90625 53.59375 34.0625 53.246094 35.714844 C 50.636719 30.621094 49.609375 23.824219 42.496094 23.554688 C 41.796875 23.53125 40.875 23.417969 40.191406 23.554688 C 39.851562 23.554688 39.507812 23.554688 39.167969 23.554688 C 38.925781 27.351562 39.996094 31.3125 40.191406 34.699219 C 36.496094 29.199219 36.855469 22.074219 37.121094 15.449219 C 37.136719 14.984375 37.332031 14.484375 37.375 14.183594 C 37.484375 11.464844 39.050781 5.371094 35.070312 5.066406 C 34.65625 5.035156 34.207031 5.046875 33.792969 5.066406 C 29.160156 5.300781 26.097656 9.933594 25.855469 14.4375 C 25.613281 18.941406 26.878906 25.703125 26.878906 30.394531 M 44.800781 47.871094 C 46.203125 48.386719 44.792969 51.84375 44.816406 52.957031 C 44.839844 54.070312 44.199219 57.136719 44.035156 58.257812 C 43.867188 59.378906 43.339844 62.871094 41.8125 62.226562 C 40.285156 61.578125 41.964844 58.644531 41.984375 57.496094 C 42 56.347656 42.847656 53.34375 42.835938 52.261719 C 42.828125 51.175781 43.210938 47.285156 44.800781 47.871094 M 37.375 51.671875 C 38.613281 52.195312 37.710938 56.441406 37.886719 57.496094 C 38.066406 58.554688 37.816406 62.699219 36.179688 61.972656 C 34.542969 61.246094 36.179688 57.632812 35.839844 56.484375 C 35.503906 55.335938 35.453125 50.851562 37.375 51.671875 M 50.6875 51.925781 C 52.402344 52.226562 50.484375 56.578125 49.976562 57.550781 C 49.46875 58.523438 48.546875 62.597656 46.84375 62.308594 C 45.144531 62.015625 47.394531 58.039062 47.953125 57.070312 C 48.511719 56.105469 49.128906 51.648438 50.6875 51.925781 Z M 50.6875 51.925781 "/>
<path style=" stroke:none;fill-rule:nonzero;fill:rgb(18.82353%,18.82353%,18.82353%);fill-opacity:0.0901961;" d="M 25.601562 8.359375 C 25.878906 7.890625 26.496094 7.320312 26.878906 6.839844 C 27.289062 6.324219 27.789062 5.84375 28.160156 5.320312 C 27.09375 5.832031 26.074219 7.351562 25.601562 8.359375 Z M 25.601562 8.359375 "/>
<path style=" stroke:none;fill-rule:nonzero;fill:rgb(4.705882%,4.705882%,4.705882%);fill-opacity:0.509804;" d="M 26.878906 6.839844 C 27.332031 6.359375 27.9375 5.808594 28.414062 5.320312 C 28.414062 5.320312 28.261719 5.269531 28.160156 5.320312 C 27.789062 5.84375 27.289062 6.324219 26.878906 6.839844 Z M 26.878906 6.839844 "/>
<path style=" stroke:none;fill-rule:nonzero;fill:rgb(45.490196%,45.490196%,45.490196%);fill-opacity:1;" d="M 37.121094 15.449219 C 37.164062 15.152344 37.359375 14.648438 37.375 14.183594 C 37.332031 14.484375 37.136719 14.984375 37.121094 15.449219 Z M 37.121094 15.449219 "/>
<path style=" stroke:none;fill-rule:nonzero;fill:rgb(54.901963%,54.901963%,54.901963%);fill-opacity:1;" d="M 40.191406 23.554688 C 40.875 23.417969 41.796875 23.53125 42.496094 23.554688 C 41.699219 23.445312 41.039062 23.261719 40.191406 23.554688 Z M 40.191406 23.554688 "/>
<path style=" stroke:none;fill-rule:nonzero;fill:rgb(48.627451%,48.627451%,48.627451%);fill-opacity:1;" d="M 26.878906 34.449219 C 27.003906 33.1875 27.003906 31.671875 26.878906 30.394531 C 26.878906 31.746094 26.878906 33.097656 26.878906 34.449219 Z M 26.878906 34.449219 "/>
<path style=" stroke:none;fill-rule:nonzero;fill:rgb(1.176471%,1.176471%,1.176471%);fill-opacity:1;" d="M 44.800781 47.871094 C 43.210938 47.285156 42.828125 51.175781 42.835938 52.261719 C 42.847656 53.34375 42 56.347656 41.984375 57.496094 C 41.964844 58.644531 40.285156 61.578125 41.8125 62.226562 C 43.339844 62.871094 43.867188 59.378906 44.035156 58.257812 C 44.199219 57.136719 44.839844 54.070312 44.816406 52.957031 C 44.792969 51.84375 46.203125 48.386719 44.800781 47.871094 Z M 44.800781 47.871094 "/>
<path style=" stroke:none;fill-rule:nonzero;fill:rgb(0.784314%,0.784314%,0.784314%);fill-opacity:1;" d="M 37.375 51.671875 C 35.453125 50.851562 35.503906 55.335938 35.839844 56.484375 C 36.179688 57.632812 34.542969 61.246094 36.179688 61.972656 C 37.816406 62.699219 38.066406 58.554688 37.886719 57.496094 C 37.710938 56.441406 38.613281 52.195312 37.375 51.671875 Z M 37.375 51.671875 "/>
<path style=" stroke:none;fill-rule:nonzero;fill:rgb(1.176471%,1.176471%,1.176471%);fill-opacity:1;" d="M 50.6875 51.925781 C 49.128906 51.648438 48.511719 56.105469 47.953125 57.070312 C 47.394531 58.039062 45.144531 62.015625 46.84375 62.308594 C 48.546875 62.597656 49.46875 58.523438 49.976562 57.550781 C 50.484375 56.578125 52.402344 52.226562 50.6875 51.925781 Z M 50.6875 51.925781 "/>
<path style=" stroke:none;fill-rule:nonzero;fill:rgb(44.313726%,44.313726%,44.313726%);fill-opacity:1;" d="M 51.710938 62.054688 C 52.355469 61.511719 52.945312 60.929688 53.503906 60.28125 C 52.9375 60.84375 52.289062 61.484375 51.710938 62.054688 Z M 51.710938 62.054688 "/>
<path style=" stroke:none;fill-rule:nonzero;fill:rgb(96.078432%,96.078432%,96.078432%);fill-opacity:1;" d="M 43.777344 67.375 C 43.457031 67.425781 42.96875 67.609375 42.496094 67.628906 C 37.027344 67.554688 31.398438 67.46875 26.878906 64.335938 C 26.027344 67.726562 29.625 69.660156 32.492188 70.433594 C 35.359375 71.207031 40.414062 71.84375 43.464844 71.371094 C 46.511719 70.898438 50.179688 69.402344 49.664062 66.109375 C 47.800781 66.980469 45.851562 67.261719 43.777344 67.375 Z M 43.777344 67.375 "/>
<path style=" stroke:none;fill-rule:nonzero;fill:rgb(47.450981%,47.450981%,47.450981%);fill-opacity:1;" d="M 42.496094 67.628906 C 42.96875 67.609375 43.457031 67.425781 43.777344 67.375 C 43.320312 67.398438 42.800781 67.585938 42.496094 67.628906 Z M 42.496094 67.628906 "/>
</g>
</svg>
