<svg width="88" height="88" viewBox="0 0 88 88" fill="none" xmlns="http://www.w3.org/2000/svg">
<g clip-path="url(#clip0_1_3)">
<path d="M25.9231 19.7597C25.7338 20.3851 25.4616 21.1245 25.2891 21.7319C25.1775 22.3043 24.904 23.065 24.8784 23.5753C24.525 29.1429 28.8143 33.6034 31.8797 37.7175C34.9451 41.8316 38.0821 47.2339 38.5215 51.3075C35.8904 51.1956 32.6521 51.7976 30.3639 51.9749C28.0791 52.1503 23.1569 54.1952 22.0599 57.2482C20.9613 60.3063 19.6366 64.3165 21.9762 66.236C24.3191 68.1535 27.8838 67.0699 30.4435 66.6285C33.0066 66.1851 36.4765 63.6326 39.763 64.8484C43.0493 66.0561 46.4515 65.855 49.697 67.078C49.722 71.8244 55.5991 72.2382 59.1674 71.3094C62.7324 70.3825 68.8292 67.1846 71.718 64.6414C74.6053 62.1032 76.4906 57.3687 72.9002 55.5562C74.146 53.5734 74.8493 50.69 75.369 48.5277C75.8922 46.3634 75.4403 43.7918 75.2673 42.0625C75.091 40.3351 74.8024 37.8509 73.836 36.0676C72.8678 34.2813 73.8288 33.6645 72.545 32.527C71.2595 31.3863 71.1254 29.0524 70.3879 29.697C69.7414 27.663 67.7547 27.0346 66.5252 26.0143C65.2957 24.9941 63.3568 24.7922 61.3162 24.7812C59.2756 24.7702 57.4404 26.1931 55.8773 25.4232C54.3176 24.6515 52.7432 23.9088 50.6629 24.251C48.5844 24.5963 46.692 24.5451 44.0927 26.1367C41.4882 27.7271 40.8612 23.1879 39.3299 21.3014C37.8021 19.4129 38.157 16.809 36.3651 15.3537C34.5768 13.9046 32.5438 13.7818 30.5397 14.9513C28.5322 16.1227 26.6812 17.2368 25.9231 19.7597ZM31.5713 16.2303C35.158 14.4816 36.5906 20.0958 37.7403 22.3059C37.9395 22.6822 38.001 23.1794 38.0997 23.4362C40.902 28.8212 43.852 34.6494 49.5696 37.1621C47.8503 34.5748 45.1105 31.9698 43.5823 28.8386C43.8766 28.6687 44.1743 28.4968 44.4686 28.3269C45.0686 27.6708 45.7244 27.4863 46.4646 27.1746C52.7482 23.8316 56.7489 28.7064 61.3402 31.4399C60.885 29.9561 59.262 28.6139 58.1257 27.4036C64.3362 24.5901 69.4101 29.894 71.2755 34.8125C73.1443 39.729 74.3729 45.271 72.8078 50.7868C72.6209 51.5802 72.3764 52.3365 72.0668 53.0892C70.9646 55.7818 69.7734 57.6794 67.2569 59.4379C64.7437 61.1944 61.112 63.0682 58.3835 64.2017C55.6568 65.3383 53.1626 65.4322 50.4791 65.2061C47.7938 64.9768 45.9457 63.9008 43.4353 63.5293C40.9249 63.1577 38.8265 61.867 36.1361 62.6523C33.4456 63.4376 30.4776 64.8828 27.5052 65.3437C24.5379 65.8058 22.3309 64.5613 22.8911 61.6489C23.4496 58.7334 24.0856 56.7724 26.4913 55.0408C28.8952 53.306 32.2428 53.4089 34.6447 53.2567C37.0535 53.1006 40.8365 54.7937 40.6551 51.7686C40.4771 48.7415 39.4299 46.2246 37.9262 43.6201C37.3076 42.5487 36.689 41.4772 36.0704 40.4057C33.923 36.6864 29.7321 31.9586 27.8803 28.2669C26.0285 24.5752 26.5603 19.3712 30.4651 16.869C30.8825 16.5372 31.0679 16.4053 31.5713 16.2303ZM66.6379 62.1158C66.8821 61.9294 67.2462 61.521 67.6313 61.2739C69.3757 60.147 70.9351 58.9494 72.15 57.3271C74.1038 59.6799 71.612 62.7 69.1897 64.5982C66.764 66.4983 62.0951 68.5208 59.258 69.3413C56.4209 70.1617 52.4202 70.4276 51.6058 67.3138C56.9537 67.5377 61.8678 64.7913 66.6379 62.1158Z" stroke="#020202" stroke-opacity="0.94902" stroke-width="0.0763923"/>
<path d="M30.4651 16.869C30.8148 16.6465 31.1984 16.4126 31.5713 16.2303C31.0679 16.4053 30.8825 16.5372 30.4651 16.869Z" stroke="#737373" stroke-width="0.0763923"/>
<path d="M36.0703 40.4057C36.7633 41.3558 37.457 42.5574 37.9262 43.6201C39.4299 46.2245 40.4771 48.7415 40.6551 51.7686C40.8365 54.7937 37.0534 53.1006 34.6447 53.2567C32.2428 53.4089 28.8952 53.306 26.4912 55.0407C24.0855 56.7724 23.4496 58.7334 22.8911 61.6489C22.3308 64.5613 24.5378 65.8058 27.5051 65.3437C30.4776 64.8828 33.4456 63.4376 36.1361 62.6523C38.8265 61.867 40.9249 63.1577 43.4353 63.5292C45.9456 63.9008 47.7937 64.9768 50.4791 65.206C53.1626 65.4322 55.6568 65.3382 58.3835 64.2017C61.112 63.0682 64.7437 61.1944 67.2568 59.4379C69.7734 57.6794 70.9646 55.7818 72.0668 53.0892C72.3064 52.348 72.5747 51.5159 72.8078 50.7868C74.3729 45.271 73.1443 39.7289 71.2755 34.8125C69.4101 29.894 64.3362 24.5901 58.1257 27.4036C59.262 28.6139 60.885 29.9561 61.3402 31.4399C56.7489 28.7064 52.7482 23.8316 46.4645 27.1746C45.8483 27.5056 44.9981 27.8767 44.4686 28.3269C44.1743 28.4968 43.8766 28.6687 43.5823 28.8386C45.1104 31.9698 47.8503 34.5748 49.5696 37.1621C43.852 34.6494 40.902 28.8212 38.0997 23.4362C37.9004 23.0599 37.8407 22.5658 37.7403 22.3059C36.5906 20.0958 35.158 14.4816 31.5713 16.2303C31.1984 16.4125 30.8147 16.6464 30.4651 16.8689C26.5602 19.3712 26.0285 24.5752 27.8803 28.2669C29.732 31.9586 33.923 36.6864 36.0703 40.4057ZM59.5904 45.2998C61.0409 45.0074 61.402 48.4532 61.9318 49.324C62.4617 50.1949 63.3104 52.9462 63.6815 53.917C64.0491 54.8898 65.1909 57.922 63.5731 58.1747C61.9536 58.4243 62.0655 55.2588 61.5568 54.3385C61.0447 53.4203 60.4038 50.615 59.8984 49.763C59.3946 48.906 57.9453 45.6302 59.5904 45.2998ZM54.8991 52.0259C56.2111 51.8217 57.3731 55.6391 58.0081 56.3874C58.6483 57.1368 60.3288 60.5475 58.5788 60.7898C56.8288 61.0322 56.5924 57.3493 55.7724 56.6087C54.9558 55.8662 52.8593 52.3365 54.8991 52.0259ZM66.5443 45.5709C68.1671 44.952 68.4978 49.3608 68.5033 50.3858C68.5087 51.4108 69.5751 55.1017 67.9679 55.7241C66.3622 56.3415 66.4906 52.0639 66.531 51.0166C66.5731 49.9724 65.0676 46.1304 66.5443 45.5709Z" stroke="#FBFBFB" stroke-width="0.0763923"/>
<path d="M24.8784 23.5753C24.904 23.065 25.1775 22.3043 25.2891 21.7319C25.4083 21.1181 25.6214 20.4872 25.7032 19.8867C25.0139 20.8255 24.8264 22.54 24.8784 23.5753Z" stroke="#303030" stroke-opacity="0.0901961" stroke-width="0.0763923"/>
<path d="M25.2891 21.7319C25.4616 21.1245 25.7338 20.3851 25.9231 19.7597C25.9231 19.7597 25.7679 19.7956 25.7032 19.8867C25.6214 20.4872 25.4083 21.1181 25.2891 21.7319Z" stroke="#0C0C0C" stroke-opacity="0.509804" stroke-width="0.0763923"/>
<path d="M38.0997 23.4362C38.001 23.1794 37.9395 22.6822 37.7403 22.3059C37.8408 22.5658 37.9005 23.0599 38.0997 23.4362Z" stroke="#747474" stroke-width="0.0763923"/>
<path d="M44.4686 28.3269C44.9981 27.8767 45.8483 27.5056 46.4646 27.1746C45.7244 27.4863 45.0686 27.6708 44.4686 28.3269Z" stroke="#8C8C8C" stroke-width="0.0763923"/>
<path d="M37.9263 43.6202C37.457 42.5574 36.7633 41.3558 36.0704 40.4057C36.689 41.4772 37.3076 42.5487 37.9263 43.6202Z" stroke="#7C7C7C" stroke-width="0.0763923"/>
<path d="M59.5904 45.2998C57.9454 45.6302 59.3946 48.906 59.8985 49.763C60.4039 50.615 61.0447 53.4203 61.5568 54.3385C62.0656 55.2588 61.9536 58.4243 63.5732 58.1747C65.1909 57.922 64.0492 54.8898 63.6815 53.917C63.3104 52.9462 62.4617 50.1949 61.9318 49.324C61.402 48.4532 61.0409 45.0074 59.5904 45.2998Z" stroke="#030303" stroke-width="0.0763923"/>
<path d="M54.8991 52.0259C52.8593 52.3365 54.9558 55.8662 55.7724 56.6087C56.5924 57.3493 56.8288 61.0322 58.5788 60.7898C60.3288 60.5475 58.6483 57.1368 58.0081 56.3874C57.3731 55.6391 56.2111 51.8217 54.8991 52.0259Z" stroke="#020202" stroke-width="0.0763923"/>
<path d="M66.5443 45.571C65.0676 46.1304 66.5732 49.9724 66.531 51.0166C66.4907 52.0639 66.3622 56.3415 67.9679 55.7241C69.5752 55.1017 68.5087 51.4108 68.5033 50.3858C68.4979 49.3608 68.1671 44.952 66.5443 45.571Z" stroke="#030303" stroke-width="0.0763923"/>
<path d="M72.0668 53.0892C72.3764 52.3365 72.6209 51.5802 72.8078 50.7868C72.5748 51.5159 72.3064 52.348 72.0668 53.0892Z" stroke="#717171" stroke-width="0.0763923"/>
<path d="M67.6313 61.2739C67.3771 61.4743 67.0383 61.864 66.6379 62.1158C61.8678 64.7913 56.9537 67.5376 51.6058 67.3138C52.4202 70.4276 56.4209 70.1617 59.258 69.3412C62.0951 68.5208 66.764 66.4983 69.1897 64.5982C71.612 62.7 74.1038 59.6799 72.15 57.3271C70.9351 58.9494 69.3757 60.147 67.6313 61.2739Z" stroke="#F5F5F5" stroke-width="0.0763923"/>
<path d="M66.6379 62.1158C67.0383 61.864 67.3771 61.4743 67.6313 61.2739C67.2462 61.521 66.8821 61.9294 66.6379 62.1158Z" stroke="#797979" stroke-width="0.0763923"/>
<path d="M25.9231 19.7597C25.7338 20.3851 25.4616 21.1245 25.2891 21.7319C25.1775 22.3043 24.904 23.065 24.8784 23.5753C24.525 29.143 28.8143 33.6034 31.8797 37.7175C34.9451 41.8317 38.0822 47.234 38.5216 51.3075C35.8905 51.1956 32.6521 51.7976 30.3639 51.975C28.0791 52.1504 23.157 54.1953 22.0599 57.2483C20.9613 60.3063 19.6366 64.3166 21.9762 66.2361C24.3192 68.1536 27.8839 67.07 30.4436 66.6285C33.0067 66.1851 36.4765 63.6326 39.7631 64.8485C43.0494 66.0562 46.4515 65.8551 49.697 67.0781C49.722 71.8245 55.5991 72.2383 59.1675 71.3095C62.7325 70.3827 68.8292 67.1847 71.7181 64.6415C74.6053 62.1033 76.4907 57.3688 72.9003 55.5563C74.1461 53.5735 74.8494 50.69 75.3691 48.5278C75.8922 46.3635 75.4404 43.7918 75.2674 42.0625C75.091 40.3352 74.8024 37.8509 73.836 36.0677C72.8678 34.2814 73.8288 33.6646 72.5451 32.527C71.2595 31.3864 71.1254 29.0525 70.388 29.6971C69.7414 27.6631 67.7547 27.0346 66.5252 26.0144C65.2957 24.9942 63.3568 24.7922 61.3162 24.7812C59.2756 24.7702 57.4404 26.1931 55.8773 25.4233C54.3176 24.6515 52.7432 23.9089 50.6629 24.2511C48.5845 24.5963 46.6921 24.5452 44.0927 26.1367C41.4882 27.7272 40.8612 23.188 39.3299 21.3014C37.8021 19.4129 38.157 16.809 36.3651 15.3537C34.5768 13.9046 32.5438 13.7818 30.5397 14.9513C28.5322 16.1227 26.6812 17.2368 25.9231 19.7597ZM31.5713 16.2303C35.158 14.4816 36.5906 20.0958 37.7403 22.3059C37.9395 22.6822 38.001 23.1794 38.0997 23.4362C40.902 28.8212 43.852 34.6495 49.5697 37.1621C47.8504 34.5749 45.1105 31.9698 43.5823 28.8387C43.8766 28.6687 44.1743 28.4969 44.4687 28.3269C45.0686 27.6709 45.7244 27.4863 46.4646 27.1746C52.7482 23.8316 56.7489 28.7064 61.3402 31.44C60.885 29.9562 59.2621 28.6139 58.1258 27.4036C64.3362 24.5902 69.4102 29.8941 71.2756 34.8125C73.1443 39.729 74.3729 45.2711 72.8079 50.7869C72.6209 51.5803 72.3765 52.3366 72.0668 53.0893C70.9647 55.7819 69.7734 57.6795 67.2569 59.438C64.7438 61.1945 61.1121 63.0683 58.3836 64.2018C55.6569 65.3383 53.1627 65.4323 50.4791 65.2061C47.7938 64.9769 45.9457 63.9009 43.4353 63.5293C40.9249 63.1578 38.8266 61.8671 36.1361 62.6524C33.4457 63.4377 30.4777 64.8829 27.5052 65.3438C24.5379 65.8059 22.3309 64.5613 22.8912 61.6489C23.4496 58.7334 24.0856 56.7725 26.4913 55.0408C28.8952 53.3061 32.2428 53.409 34.6448 53.2568C37.0535 53.1007 40.8365 54.7938 40.6552 51.7686C40.4771 48.7416 39.4299 46.2246 37.9263 43.6202C37.3076 42.5487 36.689 41.4772 36.0704 40.4057C33.9231 36.6864 29.7321 31.9587 27.8803 28.267C26.0286 24.5752 26.5603 19.3712 30.4651 16.869C30.8825 16.5372 31.0679 16.4053 31.5713 16.2303ZM66.6379 62.1159C66.8821 61.9295 67.2462 61.5211 67.6313 61.274C69.3758 60.1471 70.9351 58.9495 72.1501 57.3272C74.1039 59.68 71.6121 62.7001 69.1897 64.5983C66.764 66.4984 62.0951 68.5209 59.258 69.3413C56.421 70.1618 52.4203 70.4277 51.6058 67.3139C56.9538 67.5377 61.8679 64.7914 66.6379 62.1159Z" fill="#020202" fill-opacity="0.94902"/>
<path d="M30.4651 16.869C30.8147 16.6465 31.1984 16.4126 31.5713 16.2303C31.0679 16.4053 30.8825 16.5372 30.4651 16.869Z" fill="#737373"/>
<path d="M36.0704 40.4057C36.7633 41.3559 37.457 42.5574 37.9263 43.6202C39.4299 46.2246 40.4772 48.7416 40.6552 51.7687C40.8366 54.7938 37.0535 53.1007 34.6448 53.2568C32.2428 53.409 28.8952 53.3061 26.4913 55.0408C24.0856 56.7725 23.4497 58.7335 22.8912 61.649C22.3309 64.5614 24.5379 65.8059 27.5052 65.3438C30.4777 64.8829 33.4457 63.4377 36.1361 62.6524C38.8266 61.8671 40.9249 63.1578 43.4353 63.5294C45.9457 63.9009 47.7938 64.9769 50.4791 65.2062C53.1627 65.4323 55.6569 65.3384 58.3836 64.2018C61.1121 63.0683 64.7438 61.1945 67.2569 59.438C69.7734 57.6795 70.9647 55.7819 72.0668 53.0893C72.3065 52.3481 72.5748 51.516 72.8079 50.7869C74.3729 45.2711 73.1443 39.729 71.2756 34.8126C69.4102 29.8941 64.3362 24.5902 58.1258 27.4036C59.2621 28.614 60.885 29.9562 61.3402 31.44C56.749 28.7064 52.7482 23.8317 46.4646 27.1746C45.8483 27.5056 44.9981 27.8768 44.4687 28.327C44.1744 28.4969 43.8767 28.6688 43.5823 28.8387C45.1105 31.9699 47.8504 34.5749 49.5697 37.1622C43.852 34.6495 40.902 28.8212 38.0997 23.4362C37.9005 23.0599 37.8408 22.5659 37.7403 22.3059C36.5906 20.0959 35.158 14.4816 31.5713 16.2303C31.1984 16.4126 30.8148 16.6465 30.4651 16.869C26.5603 19.3712 26.0286 24.5753 27.8803 28.267C29.7321 31.9587 33.9231 36.6865 36.0704 40.4057ZM59.5904 45.2999C61.0409 45.0075 61.402 48.4533 61.9319 49.3241C62.4617 50.195 63.3105 52.9463 63.6815 53.9171C64.0492 54.8899 65.1909 57.9221 63.5732 58.1748C61.9537 58.4244 62.0656 55.2589 61.5569 54.3386C61.0447 53.4204 60.4039 50.6151 59.8985 49.7631C59.3947 48.9061 57.9454 45.6303 59.5904 45.2999ZM54.8992 52.026C56.2112 51.8218 57.3732 55.6392 58.0082 56.3875C58.6483 57.1369 60.3288 60.5476 58.5788 60.7899C56.8288 61.0323 56.5924 57.3494 55.7725 56.6088C54.9559 55.8663 52.8593 52.3366 54.8992 52.026ZM66.5444 45.571C68.1671 44.9521 68.4979 49.3609 68.5033 50.3859C68.5087 51.4109 69.5752 55.1018 67.9679 55.7242C66.3623 56.3416 66.4907 52.064 66.5311 51.0167C66.5732 49.9725 65.0677 46.1305 66.5444 45.571Z" fill="#FBFBFB"/>
<path d="M24.8784 23.5753C24.904 23.065 25.1775 22.3043 25.2891 21.7319C25.4083 21.1181 25.6214 20.4872 25.7032 19.8867C25.0139 20.8255 24.8264 22.54 24.8784 23.5753Z" fill="#303030" fill-opacity="0.0901961"/>
<path d="M25.2891 21.732C25.4616 21.1245 25.7338 20.3851 25.9231 19.7597C25.9231 19.7597 25.7679 19.7956 25.7032 19.8867C25.6214 20.4872 25.4083 21.1181 25.2891 21.732Z" fill="#0C0C0C" fill-opacity="0.509804"/>
<path d="M38.0997 23.4362C38.001 23.1794 37.9395 22.6822 37.7403 22.3059C37.8408 22.5658 37.9005 23.0599 38.0997 23.4362Z" fill="#747474"/>
<path d="M44.4686 28.3269C44.9981 27.8768 45.8483 27.5056 46.4646 27.1746C45.7244 27.4863 45.0686 27.6709 44.4686 28.3269Z" fill="#8C8C8C"/>
<path d="M37.9263 43.6202C37.457 42.5574 36.7633 41.3559 36.0704 40.4057C36.689 41.4772 37.3076 42.5487 37.9263 43.6202Z" fill="#7C7C7C"/>
<path d="M59.5904 45.2999C57.9454 45.6303 59.3947 48.9061 59.8985 49.7631C60.4039 50.6151 61.0447 53.4204 61.5569 54.3386C62.0656 55.2589 61.9537 58.4244 63.5732 58.1748C65.1909 57.9221 64.0492 54.8899 63.6815 53.9171C63.3105 52.9463 62.4617 50.195 61.9319 49.3241C61.402 48.4533 61.0409 45.0075 59.5904 45.2999Z" fill="#030303"/>
<path d="M54.8992 52.026C52.8593 52.3366 54.9559 55.8663 55.7725 56.6088C56.5924 57.3494 56.8288 61.0323 58.5788 60.7899C60.3288 60.5476 58.6483 57.1369 58.0082 56.3875C57.3732 55.6392 56.2112 51.8218 54.8992 52.026Z" fill="#020202"/>
<path d="M66.5444 45.571C65.0677 46.1304 66.5732 49.9725 66.5311 51.0167C66.4907 52.064 66.3623 56.3416 67.9679 55.7242C69.5752 55.1018 68.5087 51.4109 68.5033 50.3859C68.4979 49.3609 68.1671 44.952 66.5444 45.571Z" fill="#030303"/>
<path d="M72.0668 53.0893C72.3765 52.3366 72.6209 51.5803 72.8079 50.7869C72.5748 51.516 72.3065 52.3481 72.0668 53.0893Z" fill="#717171"/>
<path d="M67.6313 61.274C67.3772 61.4744 67.0383 61.8641 66.6379 62.1159C61.8679 64.7914 56.9538 67.5377 51.6058 67.3139C52.4203 70.4277 56.421 70.1618 59.2581 69.3413C62.0951 68.5209 66.764 66.4984 69.1898 64.5983C71.6121 62.7001 74.1039 59.68 72.1501 57.3272C70.9351 58.9495 69.3758 60.1471 67.6313 61.274Z" fill="#F5F5F5"/>
<path d="M66.6379 62.1159C67.0383 61.8641 67.3772 61.4744 67.6313 61.274C67.2463 61.5211 66.8821 61.9295 66.6379 62.1159Z" fill="#797979"/>
</g>
<defs>
<clipPath id="clip0_1_3">
<rect width="64" height="64" fill="white" transform="translate(0.369812 32.3698) rotate(-30)"/>
</clipPath>
</defs>
</svg>
