<svg xmlns="http://www.w3.org/2000/svg" xmlns:v="https://svgstorm.com"
viewBox = "0 0 512 512"
width="512"
height="512">
<g fill="None" fill-opacity="0.0" stroke="#000000" stroke-opacity="0.00" stroke-width="0.3"><path d="
M 0.00 428.00 
C 6.20 414.73 26.88 410.39 29.00 395.00 C 31.11 379.60 29.99 355.35 38.77 341.77 C 47.55 328.19 55.71 318.51 67.75 307.75 C 79.79 296.99 86.95 286.06 100.08 277.08 C 113.21 268.11 136.44 274.00 142.00 290.00
C 156.35 282.12 177.70 289.81 182.00 306.00
C 202.41 299.73 223.57 318.89 220.00 340.00
C 241.72 344.33 247.11 377.01 230.00 390.00
C 236.65 398.82 241.73 411.49 240.00 423.00 C 238.27 434.51 230.75 441.90 222.75 449.75 C 214.76 457.60 208.70 463.79 200.75 471.75 C 192.81 479.72 184.82 485.32 173.98 488.98 C 163.13 492.63 148.39 496.18 136.00 495.00 C 123.61 493.82 117.54 504.78 109.00 512.00
L 428.00 512.00
C 428.00 511.50 428.00 511.00 428.00 511.00
C 406.30 511.00 378.26 508.75 361.30 495.70 C 344.35 482.65 335.49 468.75 319.75 455.25 C 304.01 441.75 295.68 426.66 279.25 413.75 C 262.82 400.85 256.16 371.38 279.00 361.00
C 275.57 354.89 270.63 346.57 272.00 339.00 C 273.37 331.43 273.12 322.63 281.25 318.25 C 289.38 313.87 290.74 308.85 290.33 300.33 C 289.92 291.81 295.84 286.81 301.25 281.25 C 306.65 275.68 317.40 274.58 325.00 275.00
C 328.61 256.88 355.08 249.27 368.70 259.31 C 382.31 269.34 390.97 281.54 403.00 293.00
C 422.93 273.69 451.17 285.58 465.75 304.25 C 480.33 322.92 499.68 333.71 512.00 353.00
L 512.00 0.00
L 320.00 0.00
C 328.51 5.45 327.40 19.16 316.00 20.00 C 304.60 20.83 300.88 6.44 310.00 0.00
L 204.00 0.00
C 217.20 11.89 201.39 24.29 191.70 34.70 C 182.01 45.10 172.09 60.62 173.01 76.01 C 173.92 91.40 167.43 117.55 189.00 120.00
C 185.29 110.07 190.80 86.48 204.22 93.78 C 217.64 101.08 206.96 118.70 210.00 131.00 C 213.04 143.30 204.87 157.27 204.07 169.07 C 203.28 180.87 196.18 192.17 196.07 204.07 C 195.96 215.97 184.72 227.45 190.78 239.22 C 196.83 251.00 211.11 236.26 209.93 224.93 C 208.75 213.59 217.65 200.36 218.00 189.00
C 220.88 175.31 224.53 161.83 227.00 148.00
C 228.67 148.24 227.17 150.85 229.00 151.00
C 231.30 149.42 235.37 149.91 238.00 149.00
C 226.39 153.54 248.45 153.16 248.00 146.00
C 250.69 156.38 252.13 166.30 255.33 176.67 C 258.53 187.04 259.60 197.43 262.99 208.01 C 266.38 218.59 265.97 228.43 270.93 239.07 C 275.88 249.72 292.14 239.64 286.67 229.33 C 281.20 219.02 282.98 208.40 279.01 197.99 C 275.04 187.59 274.48 177.45 271.01 166.99 C 267.54 156.54 264.44 146.61 265.00 135.00 C 265.56 123.39 288.13 124.73 285.98 137.02 C 283.82 149.32 297.64 156.91 302.92 144.92 C 308.21 132.94 294.42 120.30 310.08 114.08 C 325.74 107.86 318.94 130.45 330.70 132.30 C 342.45 134.16 341.55 115.11 341.00 105.00 C 340.45 94.89 340.67 77.67 340.67 67.33 C 340.67 56.99 327.80 47.78 334.77 37.77 C 341.74 27.76 353.37 36.09 355.98 46.02 C 358.58 55.96 362.99 66.32 362.00 78.00 C 361.01 89.68 361.95 105.39 362.00 117.00 C 362.05 128.61 361.24 138.79 352.25 146.25 C 343.25 153.70 333.74 155.57 323.00 152.00
C 319.34 164.55 306.60 172.65 294.00 173.00
C 298.22 194.99 308.65 216.75 308.22 239.22 C 307.80 261.69 274.67 273.92 259.25 257.75 C 243.82 241.58 245.32 216.14 239.00 196.00
C 226.16 216.75 238.38 249.12 211.30 262.30 C 184.23 275.48 160.71 244.31 170.99 218.99 C 181.28 193.67 180.44 166.92 188.00 141.00
C 149.59 140.17 150.06 96.35 153.00 68.00 C 155.94 39.64 174.48 18.96 195.00 0.00
L 0.00 0.00
L 0.00 428.00 Z"/>
</g>
<g fill="None" fill-opacity="0.0" stroke="#FEFEFE" stroke-opacity="0.95" stroke-width="0.3"><path d="
M 229.00 151.00 
C 228.50 151.34 228.26 152.52 228.00 153.00
C 226.55 164.00 236.55 175.85 236.00 187.00
C 231.24 183.36 225.12 183.31 220.00 186.00
C 219.58 187.20 218.43 188.12 218.00 189.00
C 217.65 200.36 208.75 213.59 209.93 224.93 C 211.11 236.26 196.83 251.00 190.78 239.22 C 184.72 227.45 195.96 215.97 196.07 204.07 C 196.18 192.17 203.28 180.87 204.07 169.07 C 204.87 157.27 213.04 143.30 210.00 131.00 C 206.96 118.70 217.64 101.08 204.22 93.78 C 190.80 86.48 185.29 110.07 189.00 120.00
C 167.43 117.55 173.92 91.40 173.01 76.01 C 172.09 60.62 182.01 45.10 191.70 34.70 C 201.39 24.29 217.20 11.89 204.00 0.00
L 195.00 0.00
C 174.48 18.96 155.94 39.64 153.00 68.00 C 150.06 96.35 149.59 140.17 188.00 141.00
C 180.44 166.92 181.28 193.67 170.99 218.99 C 160.71 244.31 184.23 275.48 211.30 262.30 C 238.38 249.12 226.16 216.75 239.00 196.00
C 245.32 216.14 243.82 241.58 259.25 257.75 C 274.67 273.92 307.80 261.69 308.22 239.22 C 308.65 216.75 298.22 194.99 294.00 173.00
C 306.60 172.65 319.34 164.55 323.00 152.00
C 333.74 155.57 343.25 153.70 352.25 146.25 C 361.24 138.79 362.05 128.61 362.00 117.00 C 361.95 105.39 361.01 89.68 362.00 78.00 C 362.99 66.32 358.58 55.96 355.98 46.02 C 353.37 36.09 341.74 27.76 334.77 37.77 C 327.80 47.78 340.67 56.99 340.67 67.33 C 340.67 77.67 340.45 94.89 341.00 105.00 C 341.55 115.11 342.45 134.16 330.70 132.30 C 318.94 130.45 325.74 107.86 310.08 114.08 C 294.42 120.30 308.21 132.94 302.92 144.92 C 297.64 156.91 283.82 149.32 285.98 137.02 C 288.13 124.73 265.56 123.39 265.00 135.00 C 264.44 146.61 267.54 156.54 271.01 166.99 C 274.48 177.45 275.04 187.59 279.01 197.99 C 282.98 208.40 281.20 219.02 286.67 229.33 C 292.14 239.64 275.88 249.72 270.93 239.07 C 265.97 228.43 266.38 218.59 262.99 208.01 C 259.60 197.43 258.53 187.04 255.33 176.67 C 252.13 166.30 250.69 156.38 248.00 146.00
C 248.45 153.16 226.39 153.54 238.00 149.00
C 235.37 149.91 231.30 149.42 229.00 151.00 Z"/>
</g>
<g fill="None" fill-opacity="0.0" stroke="#FFFFFF" stroke-opacity="0.90" stroke-width="0.3"><path d="
M 320.00 0.00 
L 310.00 0.00
C 300.88 6.44 304.60 20.83 316.00 20.00 C 327.40 19.16 328.51 5.45 320.00 0.00 Z"/>
</g>
<g fill="None" fill-opacity="0.0" stroke="#F8F8F8" stroke-opacity="0.07" stroke-width="0.3"><path d="
M 218.00 189.00 
C 218.43 188.12 219.58 187.20 220.00 186.00
C 223.64 175.66 222.87 162.48 228.00 153.00
C 228.26 152.52 228.50 151.34 229.00 151.00
C 227.17 150.85 228.67 148.24 227.00 148.00
C 224.53 161.83 220.88 175.31 218.00 189.00 Z"/>
</g>
<g fill="None" fill-opacity="0.0" stroke="#000000" stroke-opacity="0.00" stroke-width="0.3"><path d="
M 220.00 186.00 
C 225.12 183.31 231.24 183.36 236.00 187.00
C 236.55 175.85 226.55 164.00 228.00 153.00
C 222.87 162.48 223.64 175.66 220.00 186.00 Z"/>
</g>
<g fill="None" fill-opacity="0.0" stroke="#FFFFFF" stroke-opacity="0.94" stroke-width="0.3"><path d="
M 428.00 511.00 
C 430.84 511.00 434.98 510.21 437.00 512.00
L 446.00 512.00
C 456.78 506.32 451.47 490.67 439.98 491.02 C 428.48 491.38 414.26 488.90 403.33 488.67 C 392.40 488.44 382.65 484.15 374.25 478.75 C 365.86 473.34 361.46 466.04 354.25 459.75 C 347.04 453.47 341.80 446.37 334.75 440.25 C 327.71 434.12 322.47 425.40 315.25 419.75 C 308.03 414.10 303.26 404.92 295.75 400.25 C 288.25 395.58 279.86 380.63 291.08 378.08 C 302.29 375.52 306.22 388.65 313.25 394.75 C 320.28 400.85 326.76 406.12 332.75 414.25 C 338.74 422.38 354.78 424.16 355.00 412.00 C 355.22 399.83 344.53 397.77 338.25 389.75 C 331.96 381.73 327.31 376.47 319.25 369.75 C 311.19 363.03 309.90 356.25 299.75 350.25 C 289.60 344.25 295.25 327.16 305.74 333.26 C 316.24 339.35 316.55 345.85 325.25 352.75 C 333.95 359.65 337.16 365.26 345.25 372.75 C 353.34 380.25 356.28 383.49 364.75 392.25 C 373.23 401.01 387.86 386.48 380.23 377.77 C 372.60 369.06 367.84 365.51 360.75 358.25 C 353.67 350.98 348.15 345.11 341.25 338.75 C 334.35 332.39 329.44 323.13 321.75 318.25 C 314.06 313.36 306.53 299.37 317.23 296.23 C 327.93 293.09 331.75 308.25 339.25 312.75 C 346.75 317.25 351.53 326.88 358.75 332.25 C 365.97 337.62 370.83 346.26 378.25 351.75 C 385.67 357.25 389.99 371.55 402.00 368.00 C 414.01 364.45 408.11 350.02 400.75 344.25 C 393.40 338.47 387.67 331.37 381.25 324.75 C 374.83 318.13 367.18 312.80 361.75 305.25 C 356.32 297.70 343.38 294.47 345.00 283.00 C 346.62 271.52 361.85 278.32 366.75 286.25 C 371.65 294.17 381.00 299.01 386.75 306.25 C 392.51 313.49 398.71 319.90 405.75 326.25 C 412.80 332.60 417.36 339.91 425.25 345.75 C 433.14 351.60 435.17 361.52 446.07 363.93 C 456.98 366.33 461.35 348.22 452.25 342.75 C 443.14 337.28 440.03 328.32 432.25 322.75 C 424.46 317.19 414.68 306.93 426.22 304.22 C 437.77 301.52 443.23 312.29 450.25 318.75 C 457.26 325.22 463.36 331.32 469.75 338.25 C 476.14 345.17 483.94 350.06 488.77 358.23 C 493.60 366.40 505.01 374.41 512.00 363.00
L 512.00 353.00
C 499.68 333.71 480.33 322.92 465.75 304.25 C 451.17 285.58 422.93 273.69 403.00 293.00
C 390.97 281.54 382.31 269.34 368.70 259.31 C 355.08 249.27 328.61 256.88 325.00 275.00
C 317.40 274.58 306.65 275.68 301.25 281.25 C 295.84 286.81 289.92 291.81 290.33 300.33 C 290.74 308.85 289.38 313.87 281.25 318.25 C 273.12 322.63 273.37 331.43 272.00 339.00 C 270.63 346.57 275.57 354.89 279.00 361.00
C 256.16 371.38 262.82 400.85 279.25 413.75 C 295.68 426.66 304.01 441.75 319.75 455.25 C 335.49 468.75 344.35 482.65 361.30 495.70 C 378.26 508.75 406.30 511.00 428.00 511.00 Z"/>
</g>
<g fill="None" fill-opacity="0.0" stroke="#FFFFFF" stroke-opacity="0.95" stroke-width="0.3"><path d="
M 0.00 428.00 
L 0.00 437.00
C 13.95 454.15 28.33 426.29 39.25 418.25 C 50.17 410.21 49.05 404.83 50.00 394.00 C 50.95 383.17 50.48 371.39 52.99 361.99 C 55.50 352.60 60.39 346.70 65.77 339.77 C 71.15 332.84 77.83 328.58 83.25 322.25 C 88.66 315.92 95.61 310.84 100.75 304.75 C 105.90 298.66 115.04 289.11 121.75 297.25 C 128.46 305.39 113.43 313.25 120.26 321.74 C 127.08 330.24 137.75 325.01 142.25 317.25 C 146.74 309.48 159.14 304.85 162.75 313.25 C 166.37 321.64 150.64 332.81 162.25 338.75 C 173.86 344.69 176.98 335.71 184.75 328.75 C 192.53 321.80 203.85 333.63 195.75 340.75 C 187.65 347.87 183.17 354.34 191.25 362.75 C 199.33 371.16 207.88 353.71 216.08 360.92 C 224.27 368.14 213.88 376.54 208.25 382.25 C 202.61 387.95 196.12 393.23 190.75 399.75 C 185.38 406.27 175.47 409.93 176.00 420.00 C 176.53 430.08 191.30 431.57 196.75 423.75 C 202.21 415.94 209.05 412.80 215.00 406.00
C 226.92 421.41 209.74 431.84 199.75 442.75 C 189.76 453.66 179.56 463.01 166.32 469.32 C 153.08 475.63 126.32 470.13 114.25 477.25 C 102.19 484.38 86.62 502.05 100.00 512.00
L 109.00 512.00
C 117.54 504.78 123.61 493.82 136.00 495.00 C 148.39 496.18 163.13 492.63 173.98 488.98 C 184.82 485.32 192.81 479.72 200.75 471.75 C 208.70 463.79 214.76 457.60 222.75 449.75 C 230.75 441.90 238.27 434.51 240.00 423.00 C 241.73 411.49 236.65 398.82 230.00 390.00
C 247.11 377.01 241.72 344.33 220.00 340.00
C 223.57 318.89 202.41 299.73 182.00 306.00
C 177.70 289.81 156.35 282.12 142.00 290.00
C 136.44 274.00 113.21 268.11 100.08 277.08 C 86.95 286.06 79.79 296.99 67.75 307.75 C 55.71 318.51 47.55 328.19 38.77 341.77 C 29.99 355.35 31.11 379.60 29.00 395.00 C 26.88 410.39 6.20 414.73 0.00 428.00 Z"/>
</g>
<g fill="None" fill-opacity="0.0" stroke="#000000" stroke-opacity="0.00" stroke-width="0.3"><path d="
M 446.00 512.00 
L 512.00 512.00
L 512.00 363.00
C 505.01 374.41 493.60 366.40 488.77 358.23 C 483.94 350.06 476.14 345.17 469.75 338.25 C 463.36 331.32 457.26 325.22 450.25 318.75 C 443.23 312.29 437.77 301.52 426.22 304.22 C 414.68 306.93 424.46 317.19 432.25 322.75 C 440.03 328.32 443.14 337.28 452.25 342.75 C 461.35 348.22 456.98 366.33 446.07 363.93 C 435.17 361.52 433.14 351.60 425.25 345.75 C 417.36 339.91 412.80 332.60 405.75 326.25 C 398.71 319.90 392.51 313.49 386.75 306.25 C 381.00 299.01 371.65 294.17 366.75 286.25 C 361.85 278.32 346.62 271.52 345.00 283.00 C 343.38 294.47 356.32 297.70 361.75 305.25 C 367.18 312.80 374.83 318.13 381.25 324.75 C 387.67 331.37 393.40 338.47 400.75 344.25 C 408.11 350.02 414.01 364.45 402.00 368.00 C 389.99 371.55 385.67 357.25 378.25 351.75 C 370.83 346.26 365.97 337.62 358.75 332.25 C 351.53 326.88 346.75 317.25 339.25 312.75 C 331.75 308.25 327.93 293.09 317.23 296.23 C 306.53 299.37 314.06 313.36 321.75 318.25 C 329.44 323.13 334.35 332.39 341.25 338.75 C 348.15 345.11 353.67 350.98 360.75 358.25 C 367.84 365.51 372.60 369.06 380.23 377.77 C 387.86 386.48 373.23 401.01 364.75 392.25 C 356.28 383.49 353.34 380.25 345.25 372.75 C 337.16 365.26 333.95 359.65 325.25 352.75 C 316.55 345.85 316.24 339.35 305.74 333.26 C 295.25 327.16 289.60 344.25 299.75 350.25 C 309.90 356.25 311.19 363.03 319.25 369.75 C 327.31 376.47 331.96 381.73 338.25 389.75 C 344.53 397.77 355.22 399.83 355.00 412.00 C 354.78 424.16 338.74 422.38 332.75 414.25 C 326.76 406.12 320.28 400.85 313.25 394.75 C 306.22 388.65 302.29 375.52 291.08 378.08 C 279.86 380.63 288.25 395.58 295.75 400.25 C 303.26 404.92 308.03 414.10 315.25 419.75 C 322.47 425.40 327.71 434.12 334.75 440.25 C 341.80 446.37 347.04 453.47 354.25 459.75 C 361.46 466.04 365.86 473.34 374.25 478.75 C 382.65 484.15 392.40 488.44 403.33 488.67 C 414.26 488.90 428.48 491.38 439.98 491.02 C 451.47 490.67 456.78 506.32 446.00 512.00 Z"/>
</g>
<g fill="None" fill-opacity="0.0" stroke="#000000" stroke-opacity="0.00" stroke-width="0.3"><path d="
M 0.00 437.00 
L 0.00 512.00
L 100.00 512.00
C 86.62 502.05 102.19 484.38 114.25 477.25 C 126.32 470.13 153.08 475.63 166.32 469.32 C 179.56 463.01 189.76 453.66 199.75 442.75 C 209.74 431.84 226.92 421.41 215.00 406.00
C 209.05 412.80 202.21 415.94 196.75 423.75 C 191.30 431.57 176.53 430.08 176.00 420.00 C 175.47 409.93 185.38 406.27 190.75 399.75 C 196.12 393.23 202.61 387.95 208.25 382.25 C 213.88 376.54 224.27 368.14 216.08 360.92 C 207.88 353.71 199.33 371.16 191.25 362.75 C 183.17 354.34 187.65 347.87 195.75 340.75 C 203.85 333.63 192.53 321.80 184.75 328.75 C 176.98 335.71 173.86 344.69 162.25 338.75 C 150.64 332.81 166.37 321.64 162.75 313.25 C 159.14 304.85 146.74 309.48 142.25 317.25 C 137.75 325.01 127.08 330.24 120.26 321.74 C 113.43 313.25 128.46 305.39 121.75 297.25 C 115.04 289.11 105.90 298.66 100.75 304.75 C 95.61 310.84 88.66 315.92 83.25 322.25 C 77.83 328.58 71.15 332.84 65.77 339.77 C 60.39 346.70 55.50 352.60 52.99 361.99 C 50.48 371.39 50.95 383.17 50.00 394.00 C 49.05 404.83 50.17 410.21 39.25 418.25 C 28.33 426.29 13.95 454.15 0.00 437.00 Z"/>
</g>
<g fill="None" fill-opacity="0.0" stroke="#FFFFFF" stroke-opacity="0.35" stroke-width="0.3"><path d="
M 428.00 512.00 
L 437.00 512.00
C 434.98 510.21 430.84 511.00 428.00 511.00
C 428.00 511.00 428.00 511.50 428.00 512.00 Z"/>
</g>
<g fill="#000000" fill-opacity="0.00" stroke="None">
<path d="
M 0.00 428.00 
C 6.20 414.73 26.88 410.39 29.00 395.00 C 31.11 379.60 29.99 355.35 38.77 341.77 C 47.55 328.19 55.71 318.51 67.75 307.75 C 79.79 296.99 86.95 286.06 100.08 277.08 C 113.21 268.11 136.44 274.00 142.00 290.00
C 156.35 282.12 177.70 289.81 182.00 306.00
C 202.41 299.73 223.57 318.89 220.00 340.00
C 241.72 344.33 247.11 377.01 230.00 390.00
C 236.65 398.82 241.73 411.49 240.00 423.00 C 238.27 434.51 230.75 441.90 222.75 449.75 C 214.76 457.60 208.70 463.79 200.75 471.75 C 192.81 479.72 184.82 485.32 173.98 488.98 C 163.13 492.63 148.39 496.18 136.00 495.00 C 123.61 493.82 117.54 504.78 109.00 512.00
L 428.00 512.00
C 428.00 511.50 428.00 511.00 428.00 511.00
C 406.30 511.00 378.26 508.75 361.30 495.70 C 344.35 482.65 335.49 468.75 319.75 455.25 C 304.01 441.75 295.68 426.66 279.25 413.75 C 262.82 400.85 256.16 371.38 279.00 361.00
C 275.57 354.89 270.63 346.57 272.00 339.00 C 273.37 331.43 273.12 322.63 281.25 318.25 C 289.38 313.87 290.74 308.85 290.33 300.33 C 289.92 291.81 295.84 286.81 301.25 281.25 C 306.65 275.68 317.40 274.58 325.00 275.00
C 328.61 256.88 355.08 249.27 368.70 259.31 C 382.31 269.34 390.97 281.54 403.00 293.00
C 422.93 273.69 451.17 285.58 465.75 304.25 C 480.33 322.92 499.68 333.71 512.00 353.00
L 512.00 0.00
L 320.00 0.00
C 328.51 5.45 327.40 19.16 316.00 20.00 C 304.60 20.83 300.88 6.44 310.00 0.00
L 204.00 0.00
C 217.20 11.89 201.39 24.29 191.70 34.70 C 182.01 45.10 172.09 60.62 173.01 76.01 C 173.92 91.40 167.43 117.55 189.00 120.00
C 185.29 110.07 190.80 86.48 204.22 93.78 C 217.64 101.08 206.96 118.70 210.00 131.00 C 213.04 143.30 204.87 157.27 204.07 169.07 C 203.28 180.87 196.18 192.17 196.07 204.07 C 195.96 215.97 184.72 227.45 190.78 239.22 C 196.83 251.00 211.11 236.26 209.93 224.93 C 208.75 213.59 217.65 200.36 218.00 189.00
C 220.88 175.31 224.53 161.83 227.00 148.00
C 228.67 148.24 227.17 150.85 229.00 151.00
C 231.30 149.42 235.37 149.91 238.00 149.00
C 226.39 153.54 248.45 153.16 248.00 146.00
C 250.69 156.38 252.13 166.30 255.33 176.67 C 258.53 187.04 259.60 197.43 262.99 208.01 C 266.38 218.59 265.97 228.43 270.93 239.07 C 275.88 249.72 292.14 239.64 286.67 229.33 C 281.20 219.02 282.98 208.40 279.01 197.99 C 275.04 187.59 274.48 177.45 271.01 166.99 C 267.54 156.54 264.44 146.61 265.00 135.00 C 265.56 123.39 288.13 124.73 285.98 137.02 C 283.82 149.32 297.64 156.91 302.92 144.92 C 308.21 132.94 294.42 120.30 310.08 114.08 C 325.74 107.86 318.94 130.45 330.70 132.30 C 342.45 134.16 341.55 115.11 341.00 105.00 C 340.45 94.89 340.67 77.67 340.67 67.33 C 340.67 56.99 327.80 47.78 334.77 37.77 C 341.74 27.76 353.37 36.09 355.98 46.02 C 358.58 55.96 362.99 66.32 362.00 78.00 C 361.01 89.68 361.95 105.39 362.00 117.00 C 362.05 128.61 361.24 138.79 352.25 146.25 C 343.25 153.70 333.74 155.57 323.00 152.00
C 319.34 164.55 306.60 172.65 294.00 173.00
C 298.22 194.99 308.65 216.75 308.22 239.22 C 307.80 261.69 274.67 273.92 259.25 257.75 C 243.82 241.58 245.32 216.14 239.00 196.00
C 226.16 216.75 238.38 249.12 211.30 262.30 C 184.23 275.48 160.71 244.31 170.99 218.99 C 181.28 193.67 180.44 166.92 188.00 141.00
C 149.59 140.17 150.06 96.35 153.00 68.00 C 155.94 39.64 174.48 18.96 195.00 0.00
L 0.00 0.00
L 0.00 428.00 Z"/>
</g>
<g fill="#FEFEFE" fill-opacity="0.95" stroke="None">
<path d="
M 229.00 151.00 
C 228.50 151.34 228.26 152.52 228.00 153.00
C 226.55 164.00 236.55 175.85 236.00 187.00
C 231.24 183.36 225.12 183.31 220.00 186.00
C 219.58 187.20 218.43 188.12 218.00 189.00
C 217.65 200.36 208.75 213.59 209.93 224.93 C 211.11 236.26 196.83 251.00 190.78 239.22 C 184.72 227.45 195.96 215.97 196.07 204.07 C 196.18 192.17 203.28 180.87 204.07 169.07 C 204.87 157.27 213.04 143.30 210.00 131.00 C 206.96 118.70 217.64 101.08 204.22 93.78 C 190.80 86.48 185.29 110.07 189.00 120.00
C 167.43 117.55 173.92 91.40 173.01 76.01 C 172.09 60.62 182.01 45.10 191.70 34.70 C 201.39 24.29 217.20 11.89 204.00 0.00
L 195.00 0.00
C 174.48 18.96 155.94 39.64 153.00 68.00 C 150.06 96.35 149.59 140.17 188.00 141.00
C 180.44 166.92 181.28 193.67 170.99 218.99 C 160.71 244.31 184.23 275.48 211.30 262.30 C 238.38 249.12 226.16 216.75 239.00 196.00
C 245.32 216.14 243.82 241.58 259.25 257.75 C 274.67 273.92 307.80 261.69 308.22 239.22 C 308.65 216.75 298.22 194.99 294.00 173.00
C 306.60 172.65 319.34 164.55 323.00 152.00
C 333.74 155.57 343.25 153.70 352.25 146.25 C 361.24 138.79 362.05 128.61 362.00 117.00 C 361.95 105.39 361.01 89.68 362.00 78.00 C 362.99 66.32 358.58 55.96 355.98 46.02 C 353.37 36.09 341.74 27.76 334.77 37.77 C 327.80 47.78 340.67 56.99 340.67 67.33 C 340.67 77.67 340.45 94.89 341.00 105.00 C 341.55 115.11 342.45 134.16 330.70 132.30 C 318.94 130.45 325.74 107.86 310.08 114.08 C 294.42 120.30 308.21 132.94 302.92 144.92 C 297.64 156.91 283.82 149.32 285.98 137.02 C 288.13 124.73 265.56 123.39 265.00 135.00 C 264.44 146.61 267.54 156.54 271.01 166.99 C 274.48 177.45 275.04 187.59 279.01 197.99 C 282.98 208.40 281.20 219.02 286.67 229.33 C 292.14 239.64 275.88 249.72 270.93 239.07 C 265.97 228.43 266.38 218.59 262.99 208.01 C 259.60 197.43 258.53 187.04 255.33 176.67 C 252.13 166.30 250.69 156.38 248.00 146.00
C 248.45 153.16 226.39 153.54 238.00 149.00
C 235.37 149.91 231.30 149.42 229.00 151.00 Z"/>
</g>
<g fill="#FFFFFF" fill-opacity="0.90" stroke="None">
<path d="
M 320.00 0.00 
L 310.00 0.00
C 300.88 6.44 304.60 20.83 316.00 20.00 C 327.40 19.16 328.51 5.45 320.00 0.00 Z"/>
</g>
<g fill="#F8F8F8" fill-opacity="0.07" stroke="None">
<path d="
M 218.00 189.00 
C 218.43 188.12 219.58 187.20 220.00 186.00
C 223.64 175.66 222.87 162.48 228.00 153.00
C 228.26 152.52 228.50 151.34 229.00 151.00
C 227.17 150.85 228.67 148.24 227.00 148.00
C 224.53 161.83 220.88 175.31 218.00 189.00 Z"/>
</g>
<g fill="#000000" fill-opacity="0.00" stroke="None">
<path d="
M 220.00 186.00 
C 225.12 183.31 231.24 183.36 236.00 187.00
C 236.55 175.85 226.55 164.00 228.00 153.00
C 222.87 162.48 223.64 175.66 220.00 186.00 Z"/>
</g>
<g fill="#FFFFFF" fill-opacity="0.94" stroke="None">
<path d="
M 428.00 511.00 
C 430.84 511.00 434.98 510.21 437.00 512.00
L 446.00 512.00
C 456.78 506.32 451.47 490.67 439.98 491.02 C 428.48 491.38 414.26 488.90 403.33 488.67 C 392.40 488.44 382.65 484.15 374.25 478.75 C 365.86 473.34 361.46 466.04 354.25 459.75 C 347.04 453.47 341.80 446.37 334.75 440.25 C 327.71 434.12 322.47 425.40 315.25 419.75 C 308.03 414.10 303.26 404.92 295.75 400.25 C 288.25 395.58 279.86 380.63 291.08 378.08 C 302.29 375.52 306.22 388.65 313.25 394.75 C 320.28 400.85 326.76 406.12 332.75 414.25 C 338.74 422.38 354.78 424.16 355.00 412.00 C 355.22 399.83 344.53 397.77 338.25 389.75 C 331.96 381.73 327.31 376.47 319.25 369.75 C 311.19 363.03 309.90 356.25 299.75 350.25 C 289.60 344.25 295.25 327.16 305.74 333.26 C 316.24 339.35 316.55 345.85 325.25 352.75 C 333.95 359.65 337.16 365.26 345.25 372.75 C 353.34 380.25 356.28 383.49 364.75 392.25 C 373.23 401.01 387.86 386.48 380.23 377.77 C 372.60 369.06 367.84 365.51 360.75 358.25 C 353.67 350.98 348.15 345.11 341.25 338.75 C 334.35 332.39 329.44 323.13 321.75 318.25 C 314.06 313.36 306.53 299.37 317.23 296.23 C 327.93 293.09 331.75 308.25 339.25 312.75 C 346.75 317.25 351.53 326.88 358.75 332.25 C 365.97 337.62 370.83 346.26 378.25 351.75 C 385.67 357.25 389.99 371.55 402.00 368.00 C 414.01 364.45 408.11 350.02 400.75 344.25 C 393.40 338.47 387.67 331.37 381.25 324.75 C 374.83 318.13 367.18 312.80 361.75 305.25 C 356.32 297.70 343.38 294.47 345.00 283.00 C 346.62 271.52 361.85 278.32 366.75 286.25 C 371.65 294.17 381.00 299.01 386.75 306.25 C 392.51 313.49 398.71 319.90 405.75 326.25 C 412.80 332.60 417.36 339.91 425.25 345.75 C 433.14 351.60 435.17 361.52 446.07 363.93 C 456.98 366.33 461.35 348.22 452.25 342.75 C 443.14 337.28 440.03 328.32 432.25 322.75 C 424.46 317.19 414.68 306.93 426.22 304.22 C 437.77 301.52 443.23 312.29 450.25 318.75 C 457.26 325.22 463.36 331.32 469.75 338.25 C 476.14 345.17 483.94 350.06 488.77 358.23 C 493.60 366.40 505.01 374.41 512.00 363.00
L 512.00 353.00
C 499.68 333.71 480.33 322.92 465.75 304.25 C 451.17 285.58 422.93 273.69 403.00 293.00
C 390.97 281.54 382.31 269.34 368.70 259.31 C 355.08 249.27 328.61 256.88 325.00 275.00
C 317.40 274.58 306.65 275.68 301.25 281.25 C 295.84 286.81 289.92 291.81 290.33 300.33 C 290.74 308.85 289.38 313.87 281.25 318.25 C 273.12 322.63 273.37 331.43 272.00 339.00 C 270.63 346.57 275.57 354.89 279.00 361.00
C 256.16 371.38 262.82 400.85 279.25 413.75 C 295.68 426.66 304.01 441.75 319.75 455.25 C 335.49 468.75 344.35 482.65 361.30 495.70 C 378.26 508.75 406.30 511.00 428.00 511.00 Z"/>
</g>
<g fill="#FFFFFF" fill-opacity="0.95" stroke="None">
<path d="
M 0.00 428.00 
L 0.00 437.00
C 13.95 454.15 28.33 426.29 39.25 418.25 C 50.17 410.21 49.05 404.83 50.00 394.00 C 50.95 383.17 50.48 371.39 52.99 361.99 C 55.50 352.60 60.39 346.70 65.77 339.77 C 71.15 332.84 77.83 328.58 83.25 322.25 C 88.66 315.92 95.61 310.84 100.75 304.75 C 105.90 298.66 115.04 289.11 121.75 297.25 C 128.46 305.39 113.43 313.25 120.26 321.74 C 127.08 330.24 137.75 325.01 142.25 317.25 C 146.74 309.48 159.14 304.85 162.75 313.25 C 166.37 321.64 150.64 332.81 162.25 338.75 C 173.86 344.69 176.98 335.71 184.75 328.75 C 192.53 321.80 203.85 333.63 195.75 340.75 C 187.65 347.87 183.17 354.34 191.25 362.75 C 199.33 371.16 207.88 353.71 216.08 360.92 C 224.27 368.14 213.88 376.54 208.25 382.25 C 202.61 387.95 196.12 393.23 190.75 399.75 C 185.38 406.27 175.47 409.93 176.00 420.00 C 176.53 430.08 191.30 431.57 196.75 423.75 C 202.21 415.94 209.05 412.80 215.00 406.00
C 226.92 421.41 209.74 431.84 199.75 442.75 C 189.76 453.66 179.56 463.01 166.32 469.32 C 153.08 475.63 126.32 470.13 114.25 477.25 C 102.19 484.38 86.62 502.05 100.00 512.00
L 109.00 512.00
C 117.54 504.78 123.61 493.82 136.00 495.00 C 148.39 496.18 163.13 492.63 173.98 488.98 C 184.82 485.32 192.81 479.72 200.75 471.75 C 208.70 463.79 214.76 457.60 222.75 449.75 C 230.75 441.90 238.27 434.51 240.00 423.00 C 241.73 411.49 236.65 398.82 230.00 390.00
C 247.11 377.01 241.72 344.33 220.00 340.00
C 223.57 318.89 202.41 299.73 182.00 306.00
C 177.70 289.81 156.35 282.12 142.00 290.00
C 136.44 274.00 113.21 268.11 100.08 277.08 C 86.95 286.06 79.79 296.99 67.75 307.75 C 55.71 318.51 47.55 328.19 38.77 341.77 C 29.99 355.35 31.11 379.60 29.00 395.00 C 26.88 410.39 6.20 414.73 0.00 428.00 Z"/>
</g>
<g fill="#000000" fill-opacity="0.00" stroke="None">
<path d="
M 446.00 512.00 
L 512.00 512.00
L 512.00 363.00
C 505.01 374.41 493.60 366.40 488.77 358.23 C 483.94 350.06 476.14 345.17 469.75 338.25 C 463.36 331.32 457.26 325.22 450.25 318.75 C 443.23 312.29 437.77 301.52 426.22 304.22 C 414.68 306.93 424.46 317.19 432.25 322.75 C 440.03 328.32 443.14 337.28 452.25 342.75 C 461.35 348.22 456.98 366.33 446.07 363.93 C 435.17 361.52 433.14 351.60 425.25 345.75 C 417.36 339.91 412.80 332.60 405.75 326.25 C 398.71 319.90 392.51 313.49 386.75 306.25 C 381.00 299.01 371.65 294.17 366.75 286.25 C 361.85 278.32 346.62 271.52 345.00 283.00 C 343.38 294.47 356.32 297.70 361.75 305.25 C 367.18 312.80 374.83 318.13 381.25 324.75 C 387.67 331.37 393.40 338.47 400.75 344.25 C 408.11 350.02 414.01 364.45 402.00 368.00 C 389.99 371.55 385.67 357.25 378.25 351.75 C 370.83 346.26 365.97 337.62 358.75 332.25 C 351.53 326.88 346.75 317.25 339.25 312.75 C 331.75 308.25 327.93 293.09 317.23 296.23 C 306.53 299.37 314.06 313.36 321.75 318.25 C 329.44 323.13 334.35 332.39 341.25 338.75 C 348.15 345.11 353.67 350.98 360.75 358.25 C 367.84 365.51 372.60 369.06 380.23 377.77 C 387.86 386.48 373.23 401.01 364.75 392.25 C 356.28 383.49 353.34 380.25 345.25 372.75 C 337.16 365.26 333.95 359.65 325.25 352.75 C 316.55 345.85 316.24 339.35 305.74 333.26 C 295.25 327.16 289.60 344.25 299.75 350.25 C 309.90 356.25 311.19 363.03 319.25 369.75 C 327.31 376.47 331.96 381.73 338.25 389.75 C 344.53 397.77 355.22 399.83 355.00 412.00 C 354.78 424.16 338.74 422.38 332.75 414.25 C 326.76 406.12 320.28 400.85 313.25 394.75 C 306.22 388.65 302.29 375.52 291.08 378.08 C 279.86 380.63 288.25 395.58 295.75 400.25 C 303.26 404.92 308.03 414.10 315.25 419.75 C 322.47 425.40 327.71 434.12 334.75 440.25 C 341.80 446.37 347.04 453.47 354.25 459.75 C 361.46 466.04 365.86 473.34 374.25 478.75 C 382.65 484.15 392.40 488.44 403.33 488.67 C 414.26 488.90 428.48 491.38 439.98 491.02 C 451.47 490.67 456.78 506.32 446.00 512.00 Z"/>
</g>
<g fill="#000000" fill-opacity="0.00" stroke="None">
<path d="
M 0.00 437.00 
L 0.00 512.00
L 100.00 512.00
C 86.62 502.05 102.19 484.38 114.25 477.25 C 126.32 470.13 153.08 475.63 166.32 469.32 C 179.56 463.01 189.76 453.66 199.75 442.75 C 209.74 431.84 226.92 421.41 215.00 406.00
C 209.05 412.80 202.21 415.94 196.75 423.75 C 191.30 431.57 176.53 430.08 176.00 420.00 C 175.47 409.93 185.38 406.27 190.75 399.75 C 196.12 393.23 202.61 387.95 208.25 382.25 C 213.88 376.54 224.27 368.14 216.08 360.92 C 207.88 353.71 199.33 371.16 191.25 362.75 C 183.17 354.34 187.65 347.87 195.75 340.75 C 203.85 333.63 192.53 321.80 184.75 328.75 C 176.98 335.71 173.86 344.69 162.25 338.75 C 150.64 332.81 166.37 321.64 162.75 313.25 C 159.14 304.85 146.74 309.48 142.25 317.25 C 137.75 325.01 127.08 330.24 120.26 321.74 C 113.43 313.25 128.46 305.39 121.75 297.25 C 115.04 289.11 105.90 298.66 100.75 304.75 C 95.61 310.84 88.66 315.92 83.25 322.25 C 77.83 328.58 71.15 332.84 65.77 339.77 C 60.39 346.70 55.50 352.60 52.99 361.99 C 50.48 371.39 50.95 383.17 50.00 394.00 C 49.05 404.83 50.17 410.21 39.25 418.25 C 28.33 426.29 13.95 454.15 0.00 437.00 Z"/>
</g>
<g fill="#FFFFFF" fill-opacity="0.35" stroke="None">
<path d="
M 428.00 512.00 
L 437.00 512.00
C 434.98 510.21 430.84 511.00 428.00 511.00
C 428.00 511.00 428.00 511.50 428.00 512.00 Z"/>
</g>
</svg>