<svg xmlns="http://www.w3.org/2000/svg" xmlns:v="https://svgstorm.com"
viewBox = "0 0 512 512"
width="512"
height="512">
<g fill="None" fill-opacity="0.0" stroke="#000000" stroke-opacity="0.00" stroke-width="0.3"><path d="
M 0.00 512.00 
L 512.00 512.00
L 512.00 0.00
L 0.00 0.00
L 0.00 512.00
M 405.00 105.00 
C 410.94 120.69 411.71 138.75 415.93 155.07 C 420.14 171.40 423.20 189.34 426.00 206.00 C 428.80 222.66 436.43 240.10 437.00 257.00
C 437.76 279.31 431.30 303.66 429.00 326.00 C 426.70 348.34 425.32 373.20 420.00 395.00
C 417.95 403.42 411.77 410.88 407.25 418.25 C 402.73 425.62 398.73 433.72 393.75 440.75 C 388.76 447.77 385.45 456.55 380.23 463.23 C 375.01 469.91 372.14 482.14 364.00 484.00
C 344.25 488.52 323.84 487.53 303.78 490.78 C 283.72 494.03 262.28 494.73 242.00 497.00
C 226.29 498.75 204.32 504.67 190.77 495.23 C 177.22 485.79 162.48 484.31 149.92 475.08 C 137.37 465.84 119.48 464.89 109.00 454.00
C 101.39 446.09 103.38 430.71 98.67 420.33 C 93.97 409.94 93.18 397.17 89.02 385.98 C 84.87 374.78 83.80 362.33 79.22 350.78 C 74.64 339.23 75.21 326.42 78.00 314.00 C 80.79 301.57 81.72 287.66 84.00 275.00 C 86.28 262.34 87.80 249.71 89.99 236.99 C 92.19 224.27 93.55 210.64 95.99 197.99 C 98.43 185.35 98.77 172.34 101.98 159.98 C 105.18 147.61 103.05 132.74 108.00 121.00
C 111.73 112.16 128.97 112.02 137.23 106.23 C 145.48 100.44 160.03 98.78 169.08 93.08 C 178.13 87.37 191.79 85.41 201.00 80.00
C 207.23 76.34 212.30 69.53 218.75 65.75 C 225.20 61.98 231.06 56.42 237.25 52.25 C 243.43 48.08 249.39 42.41 255.70 38.70 C 262.00 34.98 267.69 27.94 274.08 25.08 C 280.47 22.22 286.24 11.69 293.00 11.00
C 300.08 10.27 306.07 22.21 312.25 25.75 C 318.43 29.30 325.06 36.15 331.08 40.92 C 337.10 45.69 344.18 51.76 350.23 56.77 C 356.28 61.78 362.80 67.08 368.70 72.30 C 374.60 77.52 381.56 82.46 387.23 87.77 C 392.90 93.08 402.45 98.26 405.00 105.00 Z"/>
</g>
<g fill="None" fill-opacity="0.0" stroke="#778491" stroke-opacity="0.99" stroke-width="0.3"><path d="
M 201.00 80.00 
C 214.21 80.35 227.57 89.46 241.00 90.00
C 207.26 110.33 172.11 128.96 138.00 149.00
C 141.57 154.11 147.00 158.31 151.00 163.00
C 155.59 168.38 162.41 173.81 166.75 179.25 C 171.09 184.69 180.05 189.48 182.00 196.00
C 184.34 190.25 195.75 187.46 199.75 181.75 C 203.75 176.05 212.34 172.77 217.25 167.25 C 222.16 161.73 229.96 157.68 235.25 152.25 C 240.54 146.82 247.14 142.88 252.75 137.75 C 258.36 132.62 264.31 128.03 270.08 123.08 C 275.85 118.13 282.25 112.92 288.00 108.00
C 289.79 106.21 291.18 104.21 292.00 102.00
C 288.52 104.26 280.57 98.00 275.98 98.02 C 271.38 98.05 263.90 95.21 258.98 94.02 C 254.05 92.84 246.73 91.10 242.00 90.00
C 259.14 78.16 275.56 64.91 293.00 54.00
C 293.05 53.65 293.95 53.23 294.00 53.00
C 294.00 39.08 294.82 24.47 293.00 11.00
C 286.24 11.69 280.47 22.22 274.08 25.08 C 267.69 27.94 262.00 34.98 255.70 38.70 C 249.39 42.41 243.43 48.08 237.25 52.25 C 231.06 56.42 225.20 61.98 218.75 65.75 C 212.30 69.53 207.23 76.34 201.00 80.00 Z"/>
</g>
<g fill="None" fill-opacity="0.0" stroke="#8D98A2" stroke-opacity="0.99" stroke-width="0.3"><path d="
M 294.00 53.00 
C 294.00 68.59 290.90 87.77 294.00 103.00
C 296.54 115.47 308.38 126.11 312.77 138.23 C 317.16 150.35 326.53 161.54 331.31 173.69 C 336.08 185.85 346.10 196.38 350.00 209.00
C 350.27 209.25 351.83 208.76 352.00 209.00
C 358.73 202.86 359.57 190.45 364.92 182.92 C 370.28 175.40 373.39 165.15 377.92 156.92 C 382.45 148.70 385.81 138.96 390.77 130.77 C 395.73 122.58 398.36 111.18 405.00 105.00
C 402.45 98.26 392.90 93.08 387.23 87.77 C 381.56 82.46 374.60 77.52 368.70 72.30 C 362.80 67.08 356.28 61.78 350.23 56.77 C 344.18 51.76 337.10 45.69 331.08 40.92 C 325.06 36.15 318.43 29.30 312.25 25.75 C 306.07 22.21 300.08 10.27 293.00 11.00
C 294.82 24.47 294.00 39.08 294.00 53.00 Z"/>
</g>
<g fill="None" fill-opacity="0.0" stroke="#8E9CA8" stroke-opacity="0.84" stroke-width="0.3"><path d="
M 293.00 54.00 
C 290.84 68.99 297.08 88.23 292.00 102.00
C 291.18 104.21 289.79 106.21 288.00 108.00
C 289.25 106.93 293.49 104.38 294.00 103.00
C 290.90 87.77 294.00 68.59 294.00 53.00
C 293.95 53.23 293.05 53.65 293.00 54.00 Z"/>
</g>
<g fill="None" fill-opacity="0.0" stroke="#92A0AC" stroke-opacity="1.00" stroke-width="0.3"><path d="
M 292.00 102.00 
C 297.08 88.23 290.84 68.99 293.00 54.00
C 275.56 64.91 259.14 78.16 242.00 90.00
C 246.73 91.10 254.05 92.84 258.98 94.02 C 263.90 95.21 271.38 98.05 275.98 98.02 C 280.57 98.00 288.52 104.26 292.00 102.00 Z"/>
</g>
<g fill="None" fill-opacity="0.0" stroke="#5E6A75" stroke-opacity="0.99" stroke-width="0.3"><path d="
M 108.00 121.00 
C 109.74 119.21 120.48 129.76 122.75 133.25 C 125.02 136.74 134.89 144.69 137.00 149.00
C 137.25 148.75 138.00 149.00 138.00 149.00
C 172.11 128.96 207.26 110.33 241.00 90.00
C 227.57 89.46 214.21 80.35 201.00 80.00
C 191.79 85.41 178.13 87.37 169.08 93.08 C 160.03 98.78 145.48 100.44 137.23 106.23 C 128.97 112.02 111.73 112.16 108.00 121.00 Z"/>
</g>
<g fill="None" fill-opacity="0.0" stroke="#616D77" stroke-opacity="1.00" stroke-width="0.3"><path d="
M 288.00 108.00 
C 282.25 112.92 275.85 118.13 270.08 123.08 C 264.31 128.03 258.36 132.62 252.75 137.75 C 247.14 142.88 240.54 146.82 235.25 152.25 C 229.96 157.68 222.16 161.73 217.25 167.25 C 212.34 172.77 203.75 176.05 199.75 181.75 C 195.75 187.46 184.34 190.25 182.00 196.00
C 186.11 209.74 178.07 227.82 180.67 241.67 C 183.27 255.52 174.23 272.41 179.00 285.00
C 182.22 286.98 188.44 279.78 193.08 279.08 C 197.71 278.37 201.04 275.48 207.08 273.08 C 213.11 270.67 213.90 270.73 222.03 267.02 C 230.15 263.32 241.39 258.41 249.69 254.69 C 258.00 250.98 255.69 251.54 264.23 248.23 C 272.77 244.92 284.12 240.24 292.23 236.23 C 300.33 232.22 300.92 233.30 307.08 230.08 C 313.24 226.85 316.03 226.94 321.08 224.08 C 326.12 221.21 330.90 221.21 335.08 218.08 C 339.25 214.94 346.86 215.73 350.00 212.00
C 349.82 211.49 350.34 210.09 350.00 209.00
C 346.10 196.38 336.08 185.85 331.31 173.69 C 326.53 161.54 317.16 150.35 312.77 138.23 C 308.38 126.11 296.54 115.47 294.00 103.00
C 293.49 104.38 289.25 106.93 288.00 108.00 Z"/>
</g>
<g fill="None" fill-opacity="0.0" stroke="#616D77" stroke-opacity="0.98" stroke-width="0.3"><path d="
M 352.00 209.00 
C 353.83 211.59 356.97 214.35 360.00 216.00
C 386.56 227.46 410.74 244.91 437.00 257.00
C 436.43 240.10 428.80 222.66 426.00 206.00 C 423.20 189.34 420.14 171.40 415.93 155.07 C 411.71 138.75 410.94 120.69 405.00 105.00
C 398.36 111.18 395.73 122.58 390.77 130.77 C 385.81 138.96 382.45 148.70 377.92 156.92 C 373.39 165.15 370.28 175.40 364.92 182.92 C 359.57 190.45 358.73 202.86 352.00 209.00 Z"/>
</g>
<g fill="None" fill-opacity="0.0" stroke="#768087" stroke-opacity="0.99" stroke-width="0.3"><path d="
M 108.00 121.00 
C 103.05 132.74 105.18 147.61 101.98 159.98 C 98.77 172.34 98.43 185.35 95.99 197.99 C 93.55 210.64 92.19 224.27 89.99 236.99 C 87.80 249.71 86.28 262.34 84.00 275.00 C 81.72 287.66 80.79 301.57 78.00 314.00 C 75.21 326.42 74.64 339.23 79.22 350.78 C 83.80 362.33 84.87 374.78 89.02 385.98 C 93.18 397.17 93.97 409.94 98.67 420.33 C 103.38 430.71 101.39 446.09 109.00 454.00
C 122.91 448.82 140.78 453.05 155.00 448.00
C 151.74 424.08 139.58 402.91 136.02 378.98 C 132.47 355.04 117.26 333.07 118.00 308.00 C 118.74 282.93 125.40 255.43 127.78 229.78 C 130.15 204.13 132.79 175.55 137.00 150.00
C 137.08 149.51 137.00 149.00 137.00 149.00
C 134.89 144.69 125.02 136.74 122.75 133.25 C 120.48 129.76 109.74 119.21 108.00 121.00
M 125.00 162.00 
C 132.55 164.83 126.61 180.98 119.00 177.00 C 111.39 173.02 116.90 158.97 125.00 162.00
M 122.00 185.00 
C 128.26 188.14 121.59 200.48 122.00 206.00 C 122.41 211.53 118.49 221.09 118.22 227.22 C 117.95 233.36 114.89 242.84 115.00 249.00 C 115.11 255.16 111.27 267.23 103.78 262.22 C 96.29 257.22 104.22 249.18 103.78 242.78 C 103.34 236.38 106.80 227.37 107.00 221.00 C 107.20 214.62 110.73 205.79 110.93 199.93 C 111.13 194.06 112.68 180.32 122.00 185.00 Z"/>
</g>
<g fill="None" fill-opacity="0.0" stroke="#8593A0" stroke-opacity="0.79" stroke-width="0.3"><path d="
M 137.00 150.00 
C 141.93 153.45 146.80 158.80 151.00 163.00
C 147.00 158.31 141.57 154.11 138.00 149.00
C 138.00 149.00 137.25 148.75 137.00 149.00
C 137.00 149.00 137.08 149.51 137.00 150.00 Z"/>
</g>
<g fill="None" fill-opacity="0.0" stroke="#8F9BA6" stroke-opacity="1.00" stroke-width="0.3"><path d="
M 155.00 448.00 
C 155.44 447.84 156.00 448.00 156.00 448.00
C 178.76 447.47 202.26 438.89 225.00 440.00
C 222.95 424.86 228.42 409.80 227.00 395.00 C 225.57 380.19 231.33 363.57 228.00 349.00
C 226.11 340.75 215.82 335.10 212.23 327.77 C 208.64 320.44 199.45 314.53 195.25 306.75 C 191.05 298.97 182.22 293.50 179.00 285.00
C 174.23 272.41 183.27 255.52 180.67 241.67 C 178.07 227.82 186.11 209.74 182.00 196.00
C 180.05 189.48 171.09 184.69 166.75 179.25 C 162.41 173.81 155.59 168.38 151.00 163.00
C 146.80 158.80 141.93 153.45 137.00 150.00
C 132.79 175.55 130.15 204.13 127.78 229.78 C 125.40 255.43 118.74 282.93 118.00 308.00 C 117.26 333.07 132.47 355.04 136.02 378.98 C 139.58 402.91 151.74 424.08 155.00 448.00
M 172.00 288.00 
C 165.73 292.82 157.70 296.76 150.00 299.00
C 156.77 294.79 164.46 290.93 172.00 288.00
M 141.00 303.00 
C 134.93 308.38 126.36 310.68 119.00 314.00
C 125.14 308.82 133.71 306.50 141.00 303.00 Z"/>
</g>
<g fill="None" fill-opacity="0.0" stroke="#EFF3F8" stroke-opacity="1.00" stroke-width="0.3"><path d="
M 125.00 162.00 
C 116.90 158.97 111.39 173.02 119.00 177.00 C 126.61 180.98 132.55 164.83 125.00 162.00 Z"/>
</g>
<g fill="None" fill-opacity="0.0" stroke="#F0F4F8" stroke-opacity="1.00" stroke-width="0.3"><path d="
M 122.00 185.00 
C 112.68 180.32 111.13 194.06 110.93 199.93 C 110.73 205.79 107.20 214.62 107.00 221.00 C 106.80 227.37 103.34 236.38 103.78 242.78 C 104.22 249.18 96.29 257.22 103.78 262.22 C 111.27 267.23 115.11 255.16 115.00 249.00 C 114.89 242.84 117.95 233.36 118.22 227.22 C 118.49 221.09 122.41 211.53 122.00 206.00 C 121.59 200.48 128.26 188.14 122.00 185.00 Z"/>
</g>
<g fill="None" fill-opacity="0.0" stroke="#626E77" stroke-opacity="0.82" stroke-width="0.3"><path d="
M 350.00 212.00 
C 350.27 212.77 352.56 214.21 353.00 215.00
C 351.68 214.46 355.13 212.46 356.08 213.93 C 357.02 215.41 358.65 215.42 360.00 216.00
C 356.97 214.35 353.83 211.59 352.00 209.00
C 351.83 208.76 350.27 209.25 350.00 209.00
C 350.34 210.09 349.82 211.49 350.00 212.00 Z"/>
</g>
<g fill="None" fill-opacity="0.0" stroke="#798794" stroke-opacity="1.00" stroke-width="0.3"><path d="
M 179.00 285.00 
C 182.22 293.50 191.05 298.97 195.25 306.75 C 199.45 314.53 208.64 320.44 212.23 327.77 C 215.82 335.10 226.11 340.75 228.00 349.00
C 235.35 353.64 247.01 352.13 255.22 355.78 C 263.43 359.42 274.07 359.22 282.67 362.33 C 291.28 365.43 301.12 366.52 310.01 368.99 C 318.89 371.46 328.01 373.92 337.02 375.98 C 346.04 378.03 355.07 380.83 364.02 382.98 C 372.98 385.12 382.17 388.01 391.07 389.93 C 399.98 391.84 411.15 396.53 418.00 394.00
C 410.31 380.60 408.92 363.03 402.03 348.98 C 395.13 334.92 392.01 318.67 385.68 304.32 C 379.34 289.97 375.70 274.15 369.08 259.92 C 362.45 245.70 360.59 228.68 353.00 215.00
C 352.56 214.21 350.27 212.77 350.00 212.00
C 346.86 215.73 339.25 214.94 335.08 218.08 C 330.90 221.21 326.12 221.21 321.08 224.08 C 316.03 226.94 313.24 226.85 307.08 230.08 C 300.92 233.30 300.33 232.22 292.23 236.23 C 284.12 240.24 272.77 244.92 264.23 248.23 C 255.69 251.54 258.00 250.98 249.69 254.69 C 241.39 258.41 230.15 263.32 222.03 267.02 C 213.90 270.73 213.11 270.67 207.08 273.08 C 201.04 275.48 197.71 278.37 193.08 279.08 C 188.44 279.78 182.22 286.98 179.00 285.00 Z"/>
</g>
<g fill="None" fill-opacity="0.0" stroke="#505C63" stroke-opacity="0.98" stroke-width="0.3"><path d="
M 353.00 215.00 
C 360.59 228.68 362.45 245.70 369.08 259.92 C 375.70 274.15 379.34 289.97 385.68 304.32 C 392.01 318.67 395.13 334.92 402.03 348.98 C 408.92 363.03 410.31 380.60 418.00 394.00
C 418.21 394.36 419.91 394.77 420.00 395.00
C 425.32 373.20 426.70 348.34 429.00 326.00 C 431.30 303.66 437.76 279.31 437.00 257.00
C 410.74 244.91 386.56 227.46 360.00 216.00
C 358.65 215.42 357.02 215.41 356.08 213.93 C 355.13 212.46 351.68 214.46 353.00 215.00 Z"/>
</g>
<g fill="None" fill-opacity="0.0" stroke="#909CA7" stroke-opacity="0.87" stroke-width="0.3"><path d="
M 172.00 288.00 
C 164.46 290.93 156.77 294.79 150.00 299.00
C 157.70 296.76 165.73 292.82 172.00 288.00 Z"/>
</g>
<g fill="None" fill-opacity="0.0" stroke="#909DA8" stroke-opacity="0.87" stroke-width="0.3"><path d="
M 141.00 303.00 
C 133.71 306.50 125.14 308.82 119.00 314.00
C 126.36 310.68 134.93 308.38 141.00 303.00 Z"/>
</g>
<g fill="None" fill-opacity="0.0" stroke="#616D77" stroke-opacity="0.99" stroke-width="0.3"><path d="
M 225.00 440.00 
C 240.78 440.77 256.60 450.59 272.07 453.93 C 287.54 457.26 303.84 463.58 319.02 467.98 C 334.21 472.37 351.68 476.21 364.00 484.00
C 372.14 482.14 375.01 469.91 380.23 463.23 C 385.45 456.55 388.76 447.77 393.75 440.75 C 398.73 433.72 402.73 425.62 407.25 418.25 C 411.77 410.88 417.95 403.42 420.00 395.00
C 419.91 394.77 418.21 394.36 418.00 394.00
C 411.15 396.53 399.98 391.84 391.07 389.93 C 382.17 388.01 372.98 385.12 364.02 382.98 C 355.07 380.83 346.04 378.03 337.02 375.98 C 328.01 373.92 318.89 371.46 310.01 368.99 C 301.12 366.52 291.28 365.43 282.67 362.33 C 274.07 359.22 263.43 359.42 255.22 355.78 C 247.01 352.13 235.35 353.64 228.00 349.00
C 231.33 363.57 225.57 380.19 227.00 395.00 C 228.42 409.80 222.95 424.86 225.00 440.00 Z"/>
</g>
<g fill="None" fill-opacity="0.0" stroke="#505C63" stroke-opacity="0.98" stroke-width="0.3"><path d="
M 156.00 448.00 
C 162.23 453.00 170.09 455.80 177.08 459.92 C 184.06 464.05 191.83 468.30 199.08 471.92 C 206.32 475.55 213.52 481.23 221.08 483.92 C 228.63 486.62 235.62 494.90 242.00 497.00
C 262.28 494.73 283.72 494.03 303.78 490.78 C 323.84 487.53 344.25 488.52 364.00 484.00
C 351.68 476.21 334.21 472.37 319.02 467.98 C 303.84 463.58 287.54 457.26 272.07 453.93 C 256.60 450.59 240.78 440.77 225.00 440.00
C 202.26 438.89 178.76 447.47 156.00 448.00 Z"/>
</g>
<g fill="None" fill-opacity="0.0" stroke="#414A4F" stroke-opacity="0.98" stroke-width="0.3"><path d="
M 109.00 454.00 
C 119.48 464.89 137.37 465.84 149.92 475.08 C 162.48 484.31 177.22 485.79 190.77 495.23 C 204.32 504.67 226.29 498.75 242.00 497.00
C 235.62 494.90 228.63 486.62 221.08 483.92 C 213.52 481.23 206.32 475.55 199.08 471.92 C 191.83 468.30 184.06 464.05 177.08 459.92 C 170.09 455.80 162.23 453.00 156.00 448.00
C 156.00 448.00 155.44 447.84 155.00 448.00
C 140.78 453.05 122.91 448.82 109.00 454.00 Z"/>
</g>
<g fill="#000000" fill-opacity="0.00" stroke="None">
<path d="
M 0.00 512.00 
L 512.00 512.00
L 512.00 0.00
L 0.00 0.00
L 0.00 512.00
M 405.00 105.00 
C 410.94 120.69 411.71 138.75 415.93 155.07 C 420.14 171.40 423.20 189.34 426.00 206.00 C 428.80 222.66 436.43 240.10 437.00 257.00
C 437.76 279.31 431.30 303.66 429.00 326.00 C 426.70 348.34 425.32 373.20 420.00 395.00
C 417.95 403.42 411.77 410.88 407.25 418.25 C 402.73 425.62 398.73 433.72 393.75 440.75 C 388.76 447.77 385.45 456.55 380.23 463.23 C 375.01 469.91 372.14 482.14 364.00 484.00
C 344.25 488.52 323.84 487.53 303.78 490.78 C 283.72 494.03 262.28 494.73 242.00 497.00
C 226.29 498.75 204.32 504.67 190.77 495.23 C 177.22 485.79 162.48 484.31 149.92 475.08 C 137.37 465.84 119.48 464.89 109.00 454.00
C 101.39 446.09 103.38 430.71 98.67 420.33 C 93.97 409.94 93.18 397.17 89.02 385.98 C 84.87 374.78 83.80 362.33 79.22 350.78 C 74.64 339.23 75.21 326.42 78.00 314.00 C 80.79 301.57 81.72 287.66 84.00 275.00 C 86.28 262.34 87.80 249.71 89.99 236.99 C 92.19 224.27 93.55 210.64 95.99 197.99 C 98.43 185.35 98.77 172.34 101.98 159.98 C 105.18 147.61 103.05 132.74 108.00 121.00
C 111.73 112.16 128.97 112.02 137.23 106.23 C 145.48 100.44 160.03 98.78 169.08 93.08 C 178.13 87.37 191.79 85.41 201.00 80.00
C 207.23 76.34 212.30 69.53 218.75 65.75 C 225.20 61.98 231.06 56.42 237.25 52.25 C 243.43 48.08 249.39 42.41 255.70 38.70 C 262.00 34.98 267.69 27.94 274.08 25.08 C 280.47 22.22 286.24 11.69 293.00 11.00
C 300.08 10.27 306.07 22.21 312.25 25.75 C 318.43 29.30 325.06 36.15 331.08 40.92 C 337.10 45.69 344.18 51.76 350.23 56.77 C 356.28 61.78 362.80 67.08 368.70 72.30 C 374.60 77.52 381.56 82.46 387.23 87.77 C 392.90 93.08 402.45 98.26 405.00 105.00 Z"/>
</g>
<g fill="#778491" fill-opacity="0.99" stroke="None">
<path d="
M 201.00 80.00 
C 214.21 80.35 227.57 89.46 241.00 90.00
C 207.26 110.33 172.11 128.96 138.00 149.00
C 141.57 154.11 147.00 158.31 151.00 163.00
C 155.59 168.38 162.41 173.81 166.75 179.25 C 171.09 184.69 180.05 189.48 182.00 196.00
C 184.34 190.25 195.75 187.46 199.75 181.75 C 203.75 176.05 212.34 172.77 217.25 167.25 C 222.16 161.73 229.96 157.68 235.25 152.25 C 240.54 146.82 247.14 142.88 252.75 137.75 C 258.36 132.62 264.31 128.03 270.08 123.08 C 275.85 118.13 282.25 112.92 288.00 108.00
C 289.79 106.21 291.18 104.21 292.00 102.00
C 288.52 104.26 280.57 98.00 275.98 98.02 C 271.38 98.05 263.90 95.21 258.98 94.02 C 254.05 92.84 246.73 91.10 242.00 90.00
C 259.14 78.16 275.56 64.91 293.00 54.00
C 293.05 53.65 293.95 53.23 294.00 53.00
C 294.00 39.08 294.82 24.47 293.00 11.00
C 286.24 11.69 280.47 22.22 274.08 25.08 C 267.69 27.94 262.00 34.98 255.70 38.70 C 249.39 42.41 243.43 48.08 237.25 52.25 C 231.06 56.42 225.20 61.98 218.75 65.75 C 212.30 69.53 207.23 76.34 201.00 80.00 Z"/>
</g>
<g fill="#8D98A2" fill-opacity="0.99" stroke="None">
<path d="
M 294.00 53.00 
C 294.00 68.59 290.90 87.77 294.00 103.00
C 296.54 115.47 308.38 126.11 312.77 138.23 C 317.16 150.35 326.53 161.54 331.31 173.69 C 336.08 185.85 346.10 196.38 350.00 209.00
C 350.27 209.25 351.83 208.76 352.00 209.00
C 358.73 202.86 359.57 190.45 364.92 182.92 C 370.28 175.40 373.39 165.15 377.92 156.92 C 382.45 148.70 385.81 138.96 390.77 130.77 C 395.73 122.58 398.36 111.18 405.00 105.00
C 402.45 98.26 392.90 93.08 387.23 87.77 C 381.56 82.46 374.60 77.52 368.70 72.30 C 362.80 67.08 356.28 61.78 350.23 56.77 C 344.18 51.76 337.10 45.69 331.08 40.92 C 325.06 36.15 318.43 29.30 312.25 25.75 C 306.07 22.21 300.08 10.27 293.00 11.00
C 294.82 24.47 294.00 39.08 294.00 53.00 Z"/>
</g>
<g fill="#8E9CA8" fill-opacity="0.84" stroke="None">
<path d="
M 293.00 54.00 
C 290.84 68.99 297.08 88.23 292.00 102.00
C 291.18 104.21 289.79 106.21 288.00 108.00
C 289.25 106.93 293.49 104.38 294.00 103.00
C 290.90 87.77 294.00 68.59 294.00 53.00
C 293.95 53.23 293.05 53.65 293.00 54.00 Z"/>
</g>
<g fill="#92A0AC" fill-opacity="1.00" stroke="None">
<path d="
M 292.00 102.00 
C 297.08 88.23 290.84 68.99 293.00 54.00
C 275.56 64.91 259.14 78.16 242.00 90.00
C 246.73 91.10 254.05 92.84 258.98 94.02 C 263.90 95.21 271.38 98.05 275.98 98.02 C 280.57 98.00 288.52 104.26 292.00 102.00 Z"/>
</g>
<g fill="#5E6A75" fill-opacity="0.99" stroke="None">
<path d="
M 108.00 121.00 
C 109.74 119.21 120.48 129.76 122.75 133.25 C 125.02 136.74 134.89 144.69 137.00 149.00
C 137.25 148.75 138.00 149.00 138.00 149.00
C 172.11 128.96 207.26 110.33 241.00 90.00
C 227.57 89.46 214.21 80.35 201.00 80.00
C 191.79 85.41 178.13 87.37 169.08 93.08 C 160.03 98.78 145.48 100.44 137.23 106.23 C 128.97 112.02 111.73 112.16 108.00 121.00 Z"/>
</g>
<g fill="#616D77" fill-opacity="1.00" stroke="None">
<path d="
M 288.00 108.00 
C 282.25 112.92 275.85 118.13 270.08 123.08 C 264.31 128.03 258.36 132.62 252.75 137.75 C 247.14 142.88 240.54 146.82 235.25 152.25 C 229.96 157.68 222.16 161.73 217.25 167.25 C 212.34 172.77 203.75 176.05 199.75 181.75 C 195.75 187.46 184.34 190.25 182.00 196.00
C 186.11 209.74 178.07 227.82 180.67 241.67 C 183.27 255.52 174.23 272.41 179.00 285.00
C 182.22 286.98 188.44 279.78 193.08 279.08 C 197.71 278.37 201.04 275.48 207.08 273.08 C 213.11 270.67 213.90 270.73 222.03 267.02 C 230.15 263.32 241.39 258.41 249.69 254.69 C 258.00 250.98 255.69 251.54 264.23 248.23 C 272.77 244.92 284.12 240.24 292.23 236.23 C 300.33 232.22 300.92 233.30 307.08 230.08 C 313.24 226.85 316.03 226.94 321.08 224.08 C 326.12 221.21 330.90 221.21 335.08 218.08 C 339.25 214.94 346.86 215.73 350.00 212.00
C 349.82 211.49 350.34 210.09 350.00 209.00
C 346.10 196.38 336.08 185.85 331.31 173.69 C 326.53 161.54 317.16 150.35 312.77 138.23 C 308.38 126.11 296.54 115.47 294.00 103.00
C 293.49 104.38 289.25 106.93 288.00 108.00 Z"/>
</g>
<g fill="#616D77" fill-opacity="0.98" stroke="None">
<path d="
M 352.00 209.00 
C 353.83 211.59 356.97 214.35 360.00 216.00
C 386.56 227.46 410.74 244.91 437.00 257.00
C 436.43 240.10 428.80 222.66 426.00 206.00 C 423.20 189.34 420.14 171.40 415.93 155.07 C 411.71 138.75 410.94 120.69 405.00 105.00
C 398.36 111.18 395.73 122.58 390.77 130.77 C 385.81 138.96 382.45 148.70 377.92 156.92 C 373.39 165.15 370.28 175.40 364.92 182.92 C 359.57 190.45 358.73 202.86 352.00 209.00 Z"/>
</g>
<g fill="#768087" fill-opacity="0.99" stroke="None">
<path d="
M 108.00 121.00 
C 103.05 132.74 105.18 147.61 101.98 159.98 C 98.77 172.34 98.43 185.35 95.99 197.99 C 93.55 210.64 92.19 224.27 89.99 236.99 C 87.80 249.71 86.28 262.34 84.00 275.00 C 81.72 287.66 80.79 301.57 78.00 314.00 C 75.21 326.42 74.64 339.23 79.22 350.78 C 83.80 362.33 84.87 374.78 89.02 385.98 C 93.18 397.17 93.97 409.94 98.67 420.33 C 103.38 430.71 101.39 446.09 109.00 454.00
C 122.91 448.82 140.78 453.05 155.00 448.00
C 151.74 424.08 139.58 402.91 136.02 378.98 C 132.47 355.04 117.26 333.07 118.00 308.00 C 118.74 282.93 125.40 255.43 127.78 229.78 C 130.15 204.13 132.79 175.55 137.00 150.00
C 137.08 149.51 137.00 149.00 137.00 149.00
C 134.89 144.69 125.02 136.74 122.75 133.25 C 120.48 129.76 109.74 119.21 108.00 121.00
M 125.00 162.00 
C 132.55 164.83 126.61 180.98 119.00 177.00 C 111.39 173.02 116.90 158.97 125.00 162.00
M 122.00 185.00 
C 128.26 188.14 121.59 200.48 122.00 206.00 C 122.41 211.53 118.49 221.09 118.22 227.22 C 117.95 233.36 114.89 242.84 115.00 249.00 C 115.11 255.16 111.27 267.23 103.78 262.22 C 96.29 257.22 104.22 249.18 103.78 242.78 C 103.34 236.38 106.80 227.37 107.00 221.00 C 107.20 214.62 110.73 205.79 110.93 199.93 C 111.13 194.06 112.68 180.32 122.00 185.00 Z"/>
</g>
<g fill="#8593A0" fill-opacity="0.79" stroke="None">
<path d="
M 137.00 150.00 
C 141.93 153.45 146.80 158.80 151.00 163.00
C 147.00 158.31 141.57 154.11 138.00 149.00
C 138.00 149.00 137.25 148.75 137.00 149.00
C 137.00 149.00 137.08 149.51 137.00 150.00 Z"/>
</g>
<g fill="#8F9BA6" fill-opacity="1.00" stroke="None">
<path d="
M 155.00 448.00 
C 155.44 447.84 156.00 448.00 156.00 448.00
C 178.76 447.47 202.26 438.89 225.00 440.00
C 222.95 424.86 228.42 409.80 227.00 395.00 C 225.57 380.19 231.33 363.57 228.00 349.00
C 226.11 340.75 215.82 335.10 212.23 327.77 C 208.64 320.44 199.45 314.53 195.25 306.75 C 191.05 298.97 182.22 293.50 179.00 285.00
C 174.23 272.41 183.27 255.52 180.67 241.67 C 178.07 227.82 186.11 209.74 182.00 196.00
C 180.05 189.48 171.09 184.69 166.75 179.25 C 162.41 173.81 155.59 168.38 151.00 163.00
C 146.80 158.80 141.93 153.45 137.00 150.00
C 132.79 175.55 130.15 204.13 127.78 229.78 C 125.40 255.43 118.74 282.93 118.00 308.00 C 117.26 333.07 132.47 355.04 136.02 378.98 C 139.58 402.91 151.74 424.08 155.00 448.00
M 172.00 288.00 
C 165.73 292.82 157.70 296.76 150.00 299.00
C 156.77 294.79 164.46 290.93 172.00 288.00
M 141.00 303.00 
C 134.93 308.38 126.36 310.68 119.00 314.00
C 125.14 308.82 133.71 306.50 141.00 303.00 Z"/>
</g>
<g fill="#EFF3F8" fill-opacity="1.00" stroke="None">
<path d="
M 125.00 162.00 
C 116.90 158.97 111.39 173.02 119.00 177.00 C 126.61 180.98 132.55 164.83 125.00 162.00 Z"/>
</g>
<g fill="#F0F4F8" fill-opacity="1.00" stroke="None">
<path d="
M 122.00 185.00 
C 112.68 180.32 111.13 194.06 110.93 199.93 C 110.73 205.79 107.20 214.62 107.00 221.00 C 106.80 227.37 103.34 236.38 103.78 242.78 C 104.22 249.18 96.29 257.22 103.78 262.22 C 111.27 267.23 115.11 255.16 115.00 249.00 C 114.89 242.84 117.95 233.36 118.22 227.22 C 118.49 221.09 122.41 211.53 122.00 206.00 C 121.59 200.48 128.26 188.14 122.00 185.00 Z"/>
</g>
<g fill="#626E77" fill-opacity="0.82" stroke="None">
<path d="
M 350.00 212.00 
C 350.27 212.77 352.56 214.21 353.00 215.00
C 351.68 214.46 355.13 212.46 356.08 213.93 C 357.02 215.41 358.65 215.42 360.00 216.00
C 356.97 214.35 353.83 211.59 352.00 209.00
C 351.83 208.76 350.27 209.25 350.00 209.00
C 350.34 210.09 349.82 211.49 350.00 212.00 Z"/>
</g>
<g fill="#798794" fill-opacity="1.00" stroke="None">
<path d="
M 179.00 285.00 
C 182.22 293.50 191.05 298.97 195.25 306.75 C 199.45 314.53 208.64 320.44 212.23 327.77 C 215.82 335.10 226.11 340.75 228.00 349.00
C 235.35 353.64 247.01 352.13 255.22 355.78 C 263.43 359.42 274.07 359.22 282.67 362.33 C 291.28 365.43 301.12 366.52 310.01 368.99 C 318.89 371.46 328.01 373.92 337.02 375.98 C 346.04 378.03 355.07 380.83 364.02 382.98 C 372.98 385.12 382.17 388.01 391.07 389.93 C 399.98 391.84 411.15 396.53 418.00 394.00
C 410.31 380.60 408.92 363.03 402.03 348.98 C 395.13 334.92 392.01 318.67 385.68 304.32 C 379.34 289.97 375.70 274.15 369.08 259.92 C 362.45 245.70 360.59 228.68 353.00 215.00
C 352.56 214.21 350.27 212.77 350.00 212.00
C 346.86 215.73 339.25 214.94 335.08 218.08 C 330.90 221.21 326.12 221.21 321.08 224.08 C 316.03 226.94 313.24 226.85 307.08 230.08 C 300.92 233.30 300.33 232.22 292.23 236.23 C 284.12 240.24 272.77 244.92 264.23 248.23 C 255.69 251.54 258.00 250.98 249.69 254.69 C 241.39 258.41 230.15 263.32 222.03 267.02 C 213.90 270.73 213.11 270.67 207.08 273.08 C 201.04 275.48 197.71 278.37 193.08 279.08 C 188.44 279.78 182.22 286.98 179.00 285.00 Z"/>
</g>
<g fill="#505C63" fill-opacity="0.98" stroke="None">
<path d="
M 353.00 215.00 
C 360.59 228.68 362.45 245.70 369.08 259.92 C 375.70 274.15 379.34 289.97 385.68 304.32 C 392.01 318.67 395.13 334.92 402.03 348.98 C 408.92 363.03 410.31 380.60 418.00 394.00
C 418.21 394.36 419.91 394.77 420.00 395.00
C 425.32 373.20 426.70 348.34 429.00 326.00 C 431.30 303.66 437.76 279.31 437.00 257.00
C 410.74 244.91 386.56 227.46 360.00 216.00
C 358.65 215.42 357.02 215.41 356.08 213.93 C 355.13 212.46 351.68 214.46 353.00 215.00 Z"/>
</g>
<g fill="#909CA7" fill-opacity="0.87" stroke="None">
<path d="
M 172.00 288.00 
C 164.46 290.93 156.77 294.79 150.00 299.00
C 157.70 296.76 165.73 292.82 172.00 288.00 Z"/>
</g>
<g fill="#909DA8" fill-opacity="0.87" stroke="None">
<path d="
M 141.00 303.00 
C 133.71 306.50 125.14 308.82 119.00 314.00
C 126.36 310.68 134.93 308.38 141.00 303.00 Z"/>
</g>
<g fill="#616D77" fill-opacity="0.99" stroke="None">
<path d="
M 225.00 440.00 
C 240.78 440.77 256.60 450.59 272.07 453.93 C 287.54 457.26 303.84 463.58 319.02 467.98 C 334.21 472.37 351.68 476.21 364.00 484.00
C 372.14 482.14 375.01 469.91 380.23 463.23 C 385.45 456.55 388.76 447.77 393.75 440.75 C 398.73 433.72 402.73 425.62 407.25 418.25 C 411.77 410.88 417.95 403.42 420.00 395.00
C 419.91 394.77 418.21 394.36 418.00 394.00
C 411.15 396.53 399.98 391.84 391.07 389.93 C 382.17 388.01 372.98 385.12 364.02 382.98 C 355.07 380.83 346.04 378.03 337.02 375.98 C 328.01 373.92 318.89 371.46 310.01 368.99 C 301.12 366.52 291.28 365.43 282.67 362.33 C 274.07 359.22 263.43 359.42 255.22 355.78 C 247.01 352.13 235.35 353.64 228.00 349.00
C 231.33 363.57 225.57 380.19 227.00 395.00 C 228.42 409.80 222.95 424.86 225.00 440.00 Z"/>
</g>
<g fill="#505C63" fill-opacity="0.98" stroke="None">
<path d="
M 156.00 448.00 
C 162.23 453.00 170.09 455.80 177.08 459.92 C 184.06 464.05 191.83 468.30 199.08 471.92 C 206.32 475.55 213.52 481.23 221.08 483.92 C 228.63 486.62 235.62 494.90 242.00 497.00
C 262.28 494.73 283.72 494.03 303.78 490.78 C 323.84 487.53 344.25 488.52 364.00 484.00
C 351.68 476.21 334.21 472.37 319.02 467.98 C 303.84 463.58 287.54 457.26 272.07 453.93 C 256.60 450.59 240.78 440.77 225.00 440.00
C 202.26 438.89 178.76 447.47 156.00 448.00 Z"/>
</g>
<g fill="#414A4F" fill-opacity="0.98" stroke="None">
<path d="
M 109.00 454.00 
C 119.48 464.89 137.37 465.84 149.92 475.08 C 162.48 484.31 177.22 485.79 190.77 495.23 C 204.32 504.67 226.29 498.75 242.00 497.00
C 235.62 494.90 228.63 486.62 221.08 483.92 C 213.52 481.23 206.32 475.55 199.08 471.92 C 191.83 468.30 184.06 464.05 177.08 459.92 C 170.09 455.80 162.23 453.00 156.00 448.00
C 156.00 448.00 155.44 447.84 155.00 448.00
C 140.78 453.05 122.91 448.82 109.00 454.00 Z"/>
</g>
</svg>